<?xml version="1.0" encoding="UTF-8" standalone="no"?>
<!DOCTYPE svg PUBLIC "-//W3C//DTD SVG 1.1//EN"
 "http://www.w3.org/Graphics/SVG/1.1/DTD/svg11.dtd">
<!-- Generated by graphviz version 14.1.2 (20260126.1125)
 -->
<!-- Title: G Pages: 1 -->
<svg width="1869pt" height="573pt"
 viewBox="0.00 0.00 1869.00 573.00" xmlns="http://www.w3.org/2000/svg" xmlns:xlink="http://www.w3.org/1999/xlink">
<g id="graph0" class="graph" transform="scale(1 1) rotate(0) translate(4 569.4)">
<title>G</title>
<polygon fill="white" stroke="none" points="-4,4 -4,-569.4 1864.78,-569.4 1864.78,4 -4,4"/>
<text xml:space="preserve" text-anchor="start" x="489.01" y="-547.15" font-family="Times,serif" font-size="15.00">Aggregate causation KG, 55,940 NTSB/FAA accident chains (edges: support ≥ 300, lift ≥ 1.0; line weight ∝ support)</text>
<!-- tier0 -->
<g id="node1" class="node">
<title>tier0</title>
<text xml:space="preserve" text-anchor="middle" x="76.95" y="-518.27" font-family="Times,serif" font-style="italic" font-size="10.00" fill="#808080">Organizational</text>
</g>
<!-- tier1 -->
<g id="node3" class="node">
<title>tier1</title>
<text xml:space="preserve" text-anchor="middle" x="76.95" y="-416.67" font-family="Times,serif" font-style="italic" font-size="10.00" fill="#808080">Latent / ambient conditions</text>
</g>
<!-- tier0&#45;&gt;tier1 -->
<!-- MAINTENANCE_INADEQUATE -->
<g id="node2" class="node">
<title>MAINTENANCE_INADEQUATE</title>
<path fill="#f7f7f7" stroke="#333333" stroke-width="0.8" d="M603.53,-539.4C603.53,-539.4 546.38,-539.4 546.38,-539.4 540.38,-539.4 534.38,-533.4 534.38,-527.4 534.38,-527.4 534.38,-515.4 534.38,-515.4 534.38,-509.4 540.38,-503.4 546.38,-503.4 546.38,-503.4 603.53,-503.4 603.53,-503.4 609.53,-503.4 615.53,-509.4 615.53,-515.4 615.53,-515.4 615.53,-527.4 615.53,-527.4 615.53,-533.4 609.53,-539.4 603.53,-539.4"/>
<text xml:space="preserve" text-anchor="start" x="541.58" y="-526.9" font-family="Times,serif" font-size="10.00">Maintenance</text>
<text xml:space="preserve" text-anchor="start" x="546.08" y="-516.9" font-family="Times,serif" font-size="10.00">inadequate</text>
<text xml:space="preserve" text-anchor="start" x="555.08" y="-508.8" font-family="Times,serif" font-size="8.00" fill="#808080">n = 5,641</text>
</g>
<!-- LATENT_MECHANICAL_DEFECT -->
<g id="node4" class="node">
<title>LATENT_MECHANICAL_DEFECT</title>
<path fill="#f7f7f7" stroke="#333333" stroke-width="0.8" d="M515.02,-442.4C515.02,-442.4 466.88,-442.4 466.88,-442.4 460.88,-442.4 454.88,-436.4 454.88,-430.4 454.88,-430.4 454.88,-409.2 454.88,-409.2 454.88,-403.2 460.88,-397.2 466.88,-397.2 466.88,-397.2 515.02,-397.2 515.02,-397.2 521.02,-397.2 527.02,-403.2 527.02,-409.2 527.02,-409.2 527.02,-430.4 527.02,-430.4 527.02,-436.4 521.02,-442.4 515.02,-442.4"/>
<text xml:space="preserve" text-anchor="start" x="474.45" y="-430.3" font-family="Times,serif" font-size="10.00">Latent</text>
<text xml:space="preserve" text-anchor="start" x="462.07" y="-420.3" font-family="Times,serif" font-size="10.00">mechanical</text>
<text xml:space="preserve" text-anchor="start" x="475.2" y="-410.3" font-family="Times,serif" font-size="10.00">defect</text>
<text xml:space="preserve" text-anchor="start" x="471.07" y="-402.2" font-family="Times,serif" font-size="8.00" fill="#808080">n = 8,356</text>
</g>
<!-- MAINTENANCE_INADEQUATE&#45;&gt;LATENT_MECHANICAL_DEFECT -->
<g id="edge10" class="edge">
<title>MAINTENANCE_INADEQUATE&#45;&gt;LATENT_MECHANICAL_DEFECT</title>
<g id="a_edge10"><a xlink:title="MAINTENANCE_INADEQUATE &#45;&gt; LATENT_MECHANICAL_DEFECT: support 2,569, lift 3.05">
<path fill="none" stroke="#4d4d4d" stroke-width="1.63" d="M560.32,-503.05C547.56,-487.93 528.85,-465.74 514.07,-448.21"/>
<polygon fill="#4d4d4d" stroke="#4d4d4d" stroke-width="1.63" points="515.83,-447.31 510.81,-444.35 512.89,-449.8 515.83,-447.31"/>
</a>
</g>
</g>
<!-- FUEL_SYSTEM_ANOMALY -->
<g id="node27" class="node">
<title>FUEL_SYSTEM_ANOMALY</title>
<path fill="#f7f7f7" stroke="#333333" stroke-width="0.8" d="M710.9,-137.6C710.9,-137.6 659,-137.6 659,-137.6 653,-137.6 647,-131.6 647,-125.6 647,-125.6 647,-113.6 647,-113.6 647,-107.6 653,-101.6 659,-101.6 659,-101.6 710.9,-101.6 710.9,-101.6 716.9,-101.6 722.9,-107.6 722.9,-113.6 722.9,-113.6 722.9,-125.6 722.9,-125.6 722.9,-131.6 716.9,-137.6 710.9,-137.6"/>
<text xml:space="preserve" text-anchor="start" x="654.2" y="-125.1" font-family="Times,serif" font-size="10.00">Fuel system</text>
<text xml:space="preserve" text-anchor="start" x="663.2" y="-115.1" font-family="Times,serif" font-size="10.00">anomaly</text>
<text xml:space="preserve" text-anchor="start" x="665.08" y="-107" font-family="Times,serif" font-size="8.00" fill="#808080">n = 1,674</text>
</g>
<!-- MAINTENANCE_INADEQUATE&#45;&gt;FUEL_SYSTEM_ANOMALY -->
<g id="edge33" class="edge">
<title>MAINTENANCE_INADEQUATE&#45;&gt;FUEL_SYSTEM_ANOMALY</title>
<g id="a_edge33"><a xlink:title="MAINTENANCE_INADEQUATE &#45;&gt; FUEL_SYSTEM_ANOMALY: support 360, lift 2.13">
<path fill="none" stroke="#4d4d4d" stroke-width="0.92" d="M579.68,-503.22C597.17,-439.66 658.23,-217.7 678.42,-144.34"/>
<polygon fill="#4d4d4d" stroke="#4d4d4d" stroke-width="0.92" points="680.27,-144.87 679.87,-139.06 676.56,-143.85 680.27,-144.87"/>
</a>
</g>
</g>
<!-- OTHER_SYSTEM_FAILURE -->
<g id="node31" class="node">
<title>OTHER_SYSTEM_FAILURE</title>
<path fill="#f7f7f7" stroke="#333333" stroke-width="0.8" d="M615.28,-137.6C615.28,-137.6 556.62,-137.6 556.62,-137.6 550.62,-137.6 544.62,-131.6 544.62,-125.6 544.62,-125.6 544.62,-113.6 544.62,-113.6 544.62,-107.6 550.62,-101.6 556.62,-101.6 556.62,-101.6 615.28,-101.6 615.28,-101.6 621.28,-101.6 627.28,-107.6 627.28,-113.6 627.28,-113.6 627.28,-125.6 627.28,-125.6 627.28,-131.6 621.28,-137.6 615.28,-137.6"/>
<text xml:space="preserve" text-anchor="start" x="551.83" y="-125.1" font-family="Times,serif" font-size="10.00">Other system</text>
<text xml:space="preserve" text-anchor="start" x="569.45" y="-115.1" font-family="Times,serif" font-size="10.00">failure</text>
<text xml:space="preserve" text-anchor="start" x="566.08" y="-107" font-family="Times,serif" font-size="8.00" fill="#808080">n = 3,652</text>
</g>
<!-- MAINTENANCE_INADEQUATE&#45;&gt;OTHER_SYSTEM_FAILURE -->
<g id="edge27" class="edge">
<title>MAINTENANCE_INADEQUATE&#45;&gt;OTHER_SYSTEM_FAILURE</title>
<g id="a_edge27"><a xlink:title="MAINTENANCE_INADEQUATE &#45;&gt; OTHER_SYSTEM_FAILURE: support 475, lift 1.29">
<path fill="none" stroke="#4d4d4d" stroke-width="0.98" d="M575.42,-503.22C577.17,-439.66 583.28,-217.7 585.3,-144.34"/>
<polygon fill="#4d4d4d" stroke="#4d4d4d" stroke-width="0.98" points="587.21,-144.75 585.44,-139.2 583.36,-144.64 587.21,-144.75"/>
</a>
</g>
</g>
<!-- tier2 -->
<g id="node12" class="node">
<title>tier2</title>
<text xml:space="preserve" text-anchor="middle" x="76.95" y="-315.07" font-family="Times,serif" font-style="italic" font-size="10.00" fill="#808080">Environmental encounters</text>
</g>
<!-- tier1&#45;&gt;tier2 -->
<!-- LATENT_MECHANICAL_DEFECT&#45;&gt;FUEL_SYSTEM_ANOMALY -->
<g id="edge28" class="edge">
<title>LATENT_MECHANICAL_DEFECT&#45;&gt;FUEL_SYSTEM_ANOMALY</title>
<g id="a_edge28"><a xlink:title="LATENT_MECHANICAL_DEFECT &#45;&gt; FUEL_SYSTEM_ANOMALY: support 460, lift 1.84">
<path fill="none" stroke="#4d4d4d" stroke-width="0.98" d="M499.32,-397C515.42,-356.54 553.36,-268.09 600.95,-203.2 617.87,-180.13 641.37,-157.62 659.21,-141.94"/>
<polygon fill="#4d4d4d" stroke="#4d4d4d" stroke-width="0.98" points="660.08,-143.73 662.97,-138.67 657.55,-140.83 660.08,-143.73"/>
</a>
</g>
</g>
<!-- AIRFRAME_STRUCTURAL_FAILURE -->
<g id="node28" class="node">
<title>AIRFRAME_STRUCTURAL_FAILURE</title>
<path fill="#f7f7f7" stroke="#333333" stroke-width="0.8" d="M512.9,-142.2C512.9,-142.2 473,-142.2 473,-142.2 467,-142.2 461,-136.2 461,-130.2 461,-130.2 461,-109 461,-109 461,-103 467,-97 473,-97 473,-97 512.9,-97 512.9,-97 518.9,-97 524.9,-103 524.9,-109 524.9,-109 524.9,-130.2 524.9,-130.2 524.9,-136.2 518.9,-142.2 512.9,-142.2"/>
<text xml:space="preserve" text-anchor="start" x="470.45" y="-130.1" font-family="Times,serif" font-size="10.00">Airframe</text>
<text xml:space="preserve" text-anchor="start" x="468.2" y="-120.1" font-family="Times,serif" font-size="10.00">structural</text>
<text xml:space="preserve" text-anchor="start" x="476.45" y="-110.1" font-family="Times,serif" font-size="10.00">failure</text>
<text xml:space="preserve" text-anchor="start" x="473.07" y="-102" font-family="Times,serif" font-size="8.00" fill="#808080">n = 2,728</text>
</g>
<!-- LATENT_MECHANICAL_DEFECT&#45;&gt;AIRFRAME_STRUCTURAL_FAILURE -->
<g id="edge23" class="edge">
<title>LATENT_MECHANICAL_DEFECT&#45;&gt;AIRFRAME_STRUCTURAL_FAILURE</title>
<g id="a_edge23"><a xlink:title="LATENT_MECHANICAL_DEFECT &#45;&gt; AIRFRAME_STRUCTURAL_FAILURE: support 576, lift 1.41">
<path fill="none" stroke="#4d4d4d" stroke-width="1.03" d="M491.1,-396.87C491.45,-343.88 492.36,-208.85 492.76,-149.42"/>
<polygon fill="#4d4d4d" stroke="#4d4d4d" stroke-width="1.03" points="494.68,-149.63 492.79,-144.12 490.83,-149.61 494.68,-149.63"/>
</a>
</g>
</g>
<!-- CONTROL_SURFACE_ANOMALY -->
<g id="node29" class="node">
<title>CONTROL_SURFACE_ANOMALY</title>
<path fill="#f7f7f7" stroke="#333333" stroke-width="0.8" d="M429.15,-137.6C429.15,-137.6 360.75,-137.6 360.75,-137.6 354.75,-137.6 348.75,-131.6 348.75,-125.6 348.75,-125.6 348.75,-113.6 348.75,-113.6 348.75,-107.6 354.75,-101.6 360.75,-101.6 360.75,-101.6 429.15,-101.6 429.15,-101.6 435.15,-101.6 441.15,-107.6 441.15,-113.6 441.15,-113.6 441.15,-125.6 441.15,-125.6 441.15,-131.6 435.15,-137.6 429.15,-137.6"/>
<text xml:space="preserve" text-anchor="start" x="355.95" y="-125.1" font-family="Times,serif" font-size="10.00">Control surface</text>
<text xml:space="preserve" text-anchor="start" x="373.2" y="-115.1" font-family="Times,serif" font-size="10.00">anomaly</text>
<text xml:space="preserve" text-anchor="start" x="375.07" y="-107" font-family="Times,serif" font-size="8.00" fill="#808080">n = 1,808</text>
</g>
<!-- LATENT_MECHANICAL_DEFECT&#45;&gt;CONTROL_SURFACE_ANOMALY -->
<g id="edge22" class="edge">
<title>LATENT_MECHANICAL_DEFECT&#45;&gt;CONTROL_SURFACE_ANOMALY</title>
<g id="a_edge22"><a xlink:title="LATENT_MECHANICAL_DEFECT &#45;&gt; CONTROL_SURFACE_ANOMALY: support 607, lift 2.25">
<path fill="none" stroke="#4d4d4d" stroke-width="1.05" d="M483.89,-396.87C466.33,-342.33 420.79,-200.88 402.61,-144.4"/>
<polygon fill="#4d4d4d" stroke="#4d4d4d" stroke-width="1.05" points="404.54,-144.11 401.02,-139.46 400.87,-145.29 404.54,-144.11"/>
</a>
</g>
</g>
<!-- LANDING_GEAR_ANOMALY -->
<g id="node30" class="node">
<title>LANDING_GEAR_ANOMALY</title>
<path fill="#f7f7f7" stroke="#333333" stroke-width="0.8" d="M316.65,-137.6C316.65,-137.6 257.25,-137.6 257.25,-137.6 251.25,-137.6 245.25,-131.6 245.25,-125.6 245.25,-125.6 245.25,-113.6 245.25,-113.6 245.25,-107.6 251.25,-101.6 257.25,-101.6 257.25,-101.6 316.65,-101.6 316.65,-101.6 322.65,-101.6 328.65,-107.6 328.65,-113.6 328.65,-113.6 328.65,-125.6 328.65,-125.6 328.65,-131.6 322.65,-137.6 316.65,-137.6"/>
<text xml:space="preserve" text-anchor="start" x="252.45" y="-125.1" font-family="Times,serif" font-size="10.00">Landing gear</text>
<text xml:space="preserve" text-anchor="start" x="265.2" y="-115.1" font-family="Times,serif" font-size="10.00">anomaly</text>
<text xml:space="preserve" text-anchor="start" x="267.07" y="-107" font-family="Times,serif" font-size="8.00" fill="#808080">n = 4,321</text>
</g>
<!-- LATENT_MECHANICAL_DEFECT&#45;&gt;LANDING_GEAR_ANOMALY -->
<g id="edge13" class="edge">
<title>LATENT_MECHANICAL_DEFECT&#45;&gt;LANDING_GEAR_ANOMALY</title>
<g id="a_edge13"><a xlink:title="LATENT_MECHANICAL_DEFECT &#45;&gt; LANDING_GEAR_ANOMALY: support 1,007, lift 1.56">
<path fill="none" stroke="#4d4d4d" stroke-width="1.21" d="M475.95,-396.87C438.48,-342.11 341.08,-199.73 302.76,-143.72"/>
<polygon fill="#4d4d4d" stroke="#4d4d4d" stroke-width="1.21" points="304.55,-142.91 299.85,-139.46 301.37,-145.08 304.55,-142.91"/>
</a>
</g>
</g>
<!-- FUEL_CONTAMINATION -->
<g id="node5" class="node">
<title>FUEL_CONTAMINATION</title>
<path fill="#f7f7f7" stroke="#333333" stroke-width="0.8" d="M839.53,-437.8C839.53,-437.8 776.38,-437.8 776.38,-437.8 770.38,-437.8 764.38,-431.8 764.38,-425.8 764.38,-425.8 764.38,-413.8 764.38,-413.8 764.38,-407.8 770.38,-401.8 776.38,-401.8 776.38,-401.8 839.53,-401.8 839.53,-401.8 845.53,-401.8 851.53,-407.8 851.53,-413.8 851.53,-413.8 851.53,-425.8 851.53,-425.8 851.53,-431.8 845.53,-437.8 839.53,-437.8"/>
<text xml:space="preserve" text-anchor="start" x="796.7" y="-425.3" font-family="Times,serif" font-size="10.00">Fuel</text>
<text xml:space="preserve" text-anchor="start" x="771.58" y="-415.3" font-family="Times,serif" font-size="10.00">contamination</text>
<text xml:space="preserve" text-anchor="start" x="788.08" y="-407.2" font-family="Times,serif" font-size="8.00" fill="#808080">n = 1,097</text>
</g>
<!-- ENGINE_FAILURE -->
<g id="node26" class="node">
<title>ENGINE_FAILURE</title>
<path fill="#f7f7f7" stroke="#333333" stroke-width="0.8" d="M818.53,-137.6C818.53,-137.6 755.38,-137.6 755.38,-137.6 749.38,-137.6 743.38,-131.6 743.38,-125.6 743.38,-125.6 743.38,-113.6 743.38,-113.6 743.38,-107.6 749.38,-101.6 755.38,-101.6 755.38,-101.6 818.53,-101.6 818.53,-101.6 824.53,-101.6 830.53,-107.6 830.53,-113.6 830.53,-113.6 830.53,-125.6 830.53,-125.6 830.53,-131.6 824.53,-137.6 818.53,-137.6"/>
<text xml:space="preserve" text-anchor="start" x="750.58" y="-120.1" font-family="Times,serif" font-size="10.00">Engine failure</text>
<text xml:space="preserve" text-anchor="start" x="764.45" y="-112" font-family="Times,serif" font-size="8.00" fill="#808080">n = 16,406</text>
</g>
<!-- FUEL_CONTAMINATION&#45;&gt;ENGINE_FAILURE -->
<g id="edge18" class="edge">
<title>FUEL_CONTAMINATION&#45;&gt;ENGINE_FAILURE</title>
<g id="a_edge18"><a xlink:title="FUEL_CONTAMINATION &#45;&gt; ENGINE_FAILURE: support 826, lift 2.57">
<path fill="none" stroke="#4d4d4d" stroke-width="1.14" d="M805.78,-401.5C801.87,-369.51 793.69,-298.94 789.95,-239.2 787.91,-206.6 787.24,-168.87 787.04,-144.88"/>
<polygon fill="#4d4d4d" stroke="#4d4d4d" stroke-width="1.14" points="788.96,-145.11 787,-139.63 785.11,-145.14 788.96,-145.11"/>
</a>
</g>
</g>
<!-- FUEL_EXHAUSTION_OR_STARVATION -->
<g id="node6" class="node">
<title>FUEL_EXHAUSTION_OR_STARVATION</title>
<path fill="#f7f7f7" stroke="#333333" stroke-width="0.8" d="M732.03,-437.8C732.03,-437.8 659.88,-437.8 659.88,-437.8 653.88,-437.8 647.88,-431.8 647.88,-425.8 647.88,-425.8 647.88,-413.8 647.88,-413.8 647.88,-407.8 653.88,-401.8 659.88,-401.8 659.88,-401.8 732.03,-401.8 732.03,-401.8 738.03,-401.8 744.03,-407.8 744.03,-413.8 744.03,-413.8 744.03,-425.8 744.03,-425.8 744.03,-431.8 738.03,-437.8 732.03,-437.8"/>
<text xml:space="preserve" text-anchor="start" x="655.08" y="-425.3" font-family="Times,serif" font-size="10.00">Fuel exhaustion</text>
<text xml:space="preserve" text-anchor="start" x="667.45" y="-415.3" font-family="Times,serif" font-size="10.00">/ starvation</text>
<text xml:space="preserve" text-anchor="start" x="676.08" y="-407.2" font-family="Times,serif" font-size="8.00" fill="#808080">n = 5,414</text>
</g>
<!-- FUEL_EXHAUSTION_OR_STARVATION&#45;&gt;ENGINE_FAILURE -->
<g id="edge8" class="edge">
<title>FUEL_EXHAUSTION_OR_STARVATION&#45;&gt;ENGINE_FAILURE</title>
<g id="a_edge8"><a xlink:title="FUEL_EXHAUSTION_OR_STARVATION &#45;&gt; ENGINE_FAILURE: support 5,051, lift 3.18">
<path fill="none" stroke="#4d4d4d" stroke-width="2.08" d="M701.24,-401.48C716.57,-351.24 761.1,-205.32 779.18,-146.06"/>
<polygon fill="#4d4d4d" stroke="#4d4d4d" stroke-width="2.08" points="780.97,-146.8 780.73,-140.98 777.28,-145.68 780.97,-146.8"/>
</a>
</g>
</g>
<!-- CARBURETOR_OR_INDUCTION_ICING -->
<g id="node7" class="node">
<title>CARBURETOR_OR_INDUCTION_ICING</title>
<path fill="#f7f7f7" stroke="#333333" stroke-width="0.8" d="M950.03,-437.8C950.03,-437.8 883.88,-437.8 883.88,-437.8 877.88,-437.8 871.88,-431.8 871.88,-425.8 871.88,-425.8 871.88,-413.8 871.88,-413.8 871.88,-407.8 877.88,-401.8 883.88,-401.8 883.88,-401.8 950.03,-401.8 950.03,-401.8 956.03,-401.8 962.03,-407.8 962.03,-413.8 962.03,-413.8 962.03,-425.8 962.03,-425.8 962.03,-431.8 956.03,-437.8 950.03,-437.8"/>
<text xml:space="preserve" text-anchor="start" x="885.83" y="-425.3" font-family="Times,serif" font-size="10.00">Carburetor /</text>
<text xml:space="preserve" text-anchor="start" x="879.08" y="-415.3" font-family="Times,serif" font-size="10.00">induction icing</text>
<text xml:space="preserve" text-anchor="start" x="897.08" y="-407.2" font-family="Times,serif" font-size="8.00" fill="#808080">n = 1,456</text>
</g>
<!-- PROCEDURE_NOT_FOLLOWED -->
<g id="node20" class="node">
<title>PROCEDURE_NOT_FOLLOWED</title>
<path fill="#f7f7f7" stroke="#333333" stroke-width="0.8" d="M874.15,-239.2C874.15,-239.2 811.75,-239.2 811.75,-239.2 805.75,-239.2 799.75,-233.2 799.75,-227.2 799.75,-227.2 799.75,-215.2 799.75,-215.2 799.75,-209.2 805.75,-203.2 811.75,-203.2 811.75,-203.2 874.15,-203.2 874.15,-203.2 880.15,-203.2 886.15,-209.2 886.15,-215.2 886.15,-215.2 886.15,-227.2 886.15,-227.2 886.15,-233.2 880.15,-239.2 874.15,-239.2"/>
<text xml:space="preserve" text-anchor="start" x="806.95" y="-226.7" font-family="Times,serif" font-size="10.00">Procedure not</text>
<text xml:space="preserve" text-anchor="start" x="821.58" y="-216.7" font-family="Times,serif" font-size="10.00">followed</text>
<text xml:space="preserve" text-anchor="start" x="820.45" y="-208.6" font-family="Times,serif" font-size="8.00" fill="#808080">n = 16,385</text>
</g>
<!-- CARBURETOR_OR_INDUCTION_ICING&#45;&gt;PROCEDURE_NOT_FOLLOWED -->
<g id="edge26" class="edge">
<title>CARBURETOR_OR_INDUCTION_ICING&#45;&gt;PROCEDURE_NOT_FOLLOWED</title>
<g id="a_edge26"><a xlink:title="CARBURETOR_OR_INDUCTION_ICING &#45;&gt; PROCEDURE_NOT_FOLLOWED: support 549, lift 1.29">
<path fill="none" stroke="#4d4d4d" stroke-width="1.02" d="M910.51,-401.7C897.28,-366.55 867.01,-286.13 851.89,-245.96"/>
<polygon fill="#4d4d4d" stroke="#4d4d4d" stroke-width="1.02" points="853.71,-245.32 849.97,-240.85 850.11,-246.67 853.71,-245.32"/>
</a>
</g>
</g>
<!-- CARBURETOR_OR_INDUCTION_ICING&#45;&gt;ENGINE_FAILURE -->
<g id="edge14" class="edge">
<title>CARBURETOR_OR_INDUCTION_ICING&#45;&gt;ENGINE_FAILURE</title>
<g id="a_edge14"><a xlink:title="CARBURETOR_OR_INDUCTION_ICING &#45;&gt; ENGINE_FAILURE: support 971, lift 2.27">
<path fill="none" stroke="#4d4d4d" stroke-width="1.19" d="M919.68,-401.5C924.86,-363.04 932.56,-268.69 895.95,-203.2 880.96,-176.37 853.26,-155.56 829.54,-141.54"/>
<polygon fill="#4d4d4d" stroke="#4d4d4d" stroke-width="1.19" points="830.58,-139.91 824.85,-138.84 828.66,-143.25 830.58,-139.91"/>
</a>
</g>
</g>
<!-- HIGH_DENSITY_ALTITUDE -->
<g id="node8" class="node">
<title>HIGH_DENSITY_ALTITUDE</title>
<path fill="#f7f7f7" stroke="#333333" stroke-width="0.8" d="M242.15,-437.8C242.15,-437.8 185.75,-437.8 185.75,-437.8 179.75,-437.8 173.75,-431.8 173.75,-425.8 173.75,-425.8 173.75,-413.8 173.75,-413.8 173.75,-407.8 179.75,-401.8 185.75,-401.8 185.75,-401.8 242.15,-401.8 242.15,-401.8 248.15,-401.8 254.15,-407.8 254.15,-413.8 254.15,-413.8 254.15,-425.8 254.15,-425.8 254.15,-431.8 248.15,-437.8 242.15,-437.8"/>
<text xml:space="preserve" text-anchor="start" x="180.95" y="-425.3" font-family="Times,serif" font-size="10.00">High density</text>
<text xml:space="preserve" text-anchor="start" x="194.45" y="-415.3" font-family="Times,serif" font-size="10.00">altitude</text>
<text xml:space="preserve" text-anchor="start" x="194.07" y="-407.2" font-family="Times,serif" font-size="8.00" fill="#808080">n = 1,372</text>
</g>
<!-- STALL -->
<g id="node33" class="node">
<title>STALL</title>
<path fill="#f7f7f7" stroke="#333333" stroke-width="0.8" d="M1134.03,-36C1134.03,-36 1103.88,-36 1103.88,-36 1097.88,-36 1091.88,-30 1091.88,-24 1091.88,-24 1091.88,-12 1091.88,-12 1091.88,-6 1097.88,0 1103.88,0 1103.88,0 1134.03,0 1134.03,0 1140.03,0 1146.03,-6 1146.03,-12 1146.03,-12 1146.03,-24 1146.03,-24 1146.03,-30 1140.03,-36 1134.03,-36"/>
<text xml:space="preserve" text-anchor="start" x="1107.7" y="-18.5" font-family="Times,serif" font-size="10.00">Stall</text>
<text xml:space="preserve" text-anchor="start" x="1099.08" y="-10.4" font-family="Times,serif" font-size="8.00" fill="#808080">n = 6,641</text>
</g>
<!-- HIGH_DENSITY_ALTITUDE&#45;&gt;STALL -->
<g id="edge36" class="edge">
<title>HIGH_DENSITY_ALTITUDE&#45;&gt;STALL</title>
<g id="a_edge36"><a xlink:title="HIGH_DENSITY_ALTITUDE &#45;&gt; STALL: support 343, lift 2.11">
<path fill="none" stroke="#4d4d4d" stroke-width="0.91" d="M208.36,-401.45C192.22,-347.64 151.79,-182.08 234.95,-97 295.44,-35.12 930.57,-21.78 1085.17,-19.44"/>
<polygon fill="#4d4d4d" stroke="#4d4d4d" stroke-width="0.91" points="1084.89,-21.37 1090.36,-19.36 1084.84,-17.52 1084.89,-21.37"/>
</a>
</g>
</g>
<!-- ADVERSE_WIND_CONDITION -->
<g id="node9" class="node">
<title>ADVERSE_WIND_CONDITION</title>
<path fill="#f7f7f7" stroke="#333333" stroke-width="0.8" d="M1848.03,-437.8C1848.03,-437.8 1787.88,-437.8 1787.88,-437.8 1781.88,-437.8 1775.88,-431.8 1775.88,-425.8 1775.88,-425.8 1775.88,-413.8 1775.88,-413.8 1775.88,-407.8 1781.88,-401.8 1787.88,-401.8 1787.88,-401.8 1848.03,-401.8 1848.03,-401.8 1854.03,-401.8 1860.03,-407.8 1860.03,-413.8 1860.03,-413.8 1860.03,-425.8 1860.03,-425.8 1860.03,-431.8 1854.03,-437.8 1848.03,-437.8"/>
<text xml:space="preserve" text-anchor="start" x="1783.08" y="-425.3" font-family="Times,serif" font-size="10.00">Adverse wind</text>
<text xml:space="preserve" text-anchor="start" x="1794.33" y="-415.3" font-family="Times,serif" font-size="10.00">condition</text>
<text xml:space="preserve" text-anchor="start" x="1798.08" y="-407.2" font-family="Times,serif" font-size="8.00" fill="#808080">n = 8,768</text>
</g>
<!-- WIND_SHEAR_OR_GUST -->
<g id="node15" class="node">
<title>WIND_SHEAR_OR_GUST</title>
<path fill="#f7f7f7" stroke="#333333" stroke-width="0.8" d="M1848.78,-336.2C1848.78,-336.2 1787.12,-336.2 1787.12,-336.2 1781.12,-336.2 1775.12,-330.2 1775.12,-324.2 1775.12,-324.2 1775.12,-312.2 1775.12,-312.2 1775.12,-306.2 1781.12,-300.2 1787.12,-300.2 1787.12,-300.2 1848.78,-300.2 1848.78,-300.2 1854.78,-300.2 1860.78,-306.2 1860.78,-312.2 1860.78,-312.2 1860.78,-324.2 1860.78,-324.2 1860.78,-330.2 1854.78,-336.2 1848.78,-336.2"/>
<text xml:space="preserve" text-anchor="start" x="1782.33" y="-323.7" font-family="Times,serif" font-size="10.00">Wind shear or</text>
<text xml:space="preserve" text-anchor="start" x="1806.7" y="-313.7" font-family="Times,serif" font-size="10.00">gust</text>
<text xml:space="preserve" text-anchor="start" x="1798.08" y="-305.6" font-family="Times,serif" font-size="8.00" fill="#808080">n = 2,195</text>
</g>
<!-- ADVERSE_WIND_CONDITION&#45;&gt;WIND_SHEAR_OR_GUST -->
<g id="edge17" class="edge">
<title>ADVERSE_WIND_CONDITION&#45;&gt;WIND_SHEAR_OR_GUST</title>
<g id="a_edge17"><a xlink:title="ADVERSE_WIND_CONDITION &#45;&gt; WIND_SHEAR_OR_GUST: support 940, lift 2.73">
<path fill="none" stroke="#4d4d4d" stroke-width="1.18" d="M1817.95,-401.45C1817.95,-385.46 1817.95,-361.55 1817.95,-343.62"/>
<polygon fill="#4d4d4d" stroke="#4d4d4d" stroke-width="1.18" points="1819.88,-343.64 1817.95,-338.14 1816.03,-343.64 1819.88,-343.64"/>
</a>
</g>
</g>
<!-- DARK_NIGHT_OR_LOW_LIGHT -->
<g id="node10" class="node">
<title>DARK_NIGHT_OR_LOW_LIGHT</title>
<path fill="#f7f7f7" stroke="#333333" stroke-width="0.8" d="M1440.53,-437.8C1440.53,-437.8 1389.38,-437.8 1389.38,-437.8 1383.38,-437.8 1377.38,-431.8 1377.38,-425.8 1377.38,-425.8 1377.38,-413.8 1377.38,-413.8 1377.38,-407.8 1383.38,-401.8 1389.38,-401.8 1389.38,-401.8 1440.53,-401.8 1440.53,-401.8 1446.53,-401.8 1452.53,-407.8 1452.53,-413.8 1452.53,-413.8 1452.53,-425.8 1452.53,-425.8 1452.53,-431.8 1446.53,-437.8 1440.53,-437.8"/>
<text xml:space="preserve" text-anchor="start" x="1384.58" y="-425.3" font-family="Times,serif" font-size="10.00">Dark night /</text>
<text xml:space="preserve" text-anchor="start" x="1393.2" y="-415.3" font-family="Times,serif" font-size="10.00">low light</text>
<text xml:space="preserve" text-anchor="start" x="1395.08" y="-407.2" font-family="Times,serif" font-size="8.00" fill="#808080">n = 2,349</text>
</g>
<!-- PERCEPTION_FAILURE -->
<g id="node21" class="node">
<title>PERCEPTION_FAILURE</title>
<path fill="#f7f7f7" stroke="#333333" stroke-width="0.8" d="M1548.15,-239.2C1548.15,-239.2 1503.75,-239.2 1503.75,-239.2 1497.75,-239.2 1491.75,-233.2 1491.75,-227.2 1491.75,-227.2 1491.75,-215.2 1491.75,-215.2 1491.75,-209.2 1497.75,-203.2 1503.75,-203.2 1503.75,-203.2 1548.15,-203.2 1548.15,-203.2 1554.15,-203.2 1560.15,-209.2 1560.15,-215.2 1560.15,-215.2 1560.15,-227.2 1560.15,-227.2 1560.15,-233.2 1554.15,-239.2 1548.15,-239.2"/>
<text xml:space="preserve" text-anchor="start" x="1498.95" y="-226.7" font-family="Times,serif" font-size="10.00">Perception</text>
<text xml:space="preserve" text-anchor="start" x="1509.45" y="-216.7" font-family="Times,serif" font-size="10.00">failure</text>
<text xml:space="preserve" text-anchor="start" x="1506.08" y="-208.6" font-family="Times,serif" font-size="8.00" fill="#808080">n = 9,301</text>
</g>
<!-- DARK_NIGHT_OR_LOW_LIGHT&#45;&gt;PERCEPTION_FAILURE -->
<g id="edge16" class="edge">
<title>DARK_NIGHT_OR_LOW_LIGHT&#45;&gt;PERCEPTION_FAILURE</title>
<g id="a_edge16"><a xlink:title="DARK_NIGHT_OR_LOW_LIGHT &#45;&gt; PERCEPTION_FAILURE: support 950, lift 2.43">
<path fill="none" stroke="#4d4d4d" stroke-width="1.19" d="M1424.61,-401.7C1444.53,-366.4 1490.23,-285.47 1512.82,-245.46"/>
<polygon fill="#4d4d4d" stroke="#4d4d4d" stroke-width="1.19" points="1514.32,-246.71 1515.35,-240.97 1510.97,-244.81 1514.32,-246.71"/>
</a>
</g>
</g>
<!-- PILOT_FATIGUE_OR_PHYSIOLOGICAL_STATE -->
<g id="node11" class="node">
<title>PILOT_FATIGUE_OR_PHYSIOLOGICAL_STATE</title>
<path fill="#f7f7f7" stroke="#333333" stroke-width="0.8" d="M1569.4,-437.8C1569.4,-437.8 1484.5,-437.8 1484.5,-437.8 1478.5,-437.8 1472.5,-431.8 1472.5,-425.8 1472.5,-425.8 1472.5,-413.8 1472.5,-413.8 1472.5,-407.8 1478.5,-401.8 1484.5,-401.8 1484.5,-401.8 1569.4,-401.8 1569.4,-401.8 1575.4,-401.8 1581.4,-407.8 1581.4,-413.8 1581.4,-413.8 1581.4,-425.8 1581.4,-425.8 1581.4,-431.8 1575.4,-437.8 1569.4,-437.8"/>
<text xml:space="preserve" text-anchor="start" x="1493.2" y="-425.3" font-family="Times,serif" font-size="10.00">Pilot fatigue /</text>
<text xml:space="preserve" text-anchor="start" x="1479.7" y="-415.3" font-family="Times,serif" font-size="10.00">physiological state</text>
<text xml:space="preserve" text-anchor="start" x="1507.08" y="-407.2" font-family="Times,serif" font-size="8.00" fill="#808080">n = 1,877</text>
</g>
<!-- PILOT_FATIGUE_OR_PHYSIOLOGICAL_STATE&#45;&gt;PERCEPTION_FAILURE -->
<g id="edge38" class="edge">
<title>PILOT_FATIGUE_OR_PHYSIOLOGICAL_STATE&#45;&gt;PERCEPTION_FAILURE</title>
<g id="a_edge38"><a xlink:title="PILOT_FATIGUE_OR_PHYSIOLOGICAL_STATE &#45;&gt; PERCEPTION_FAILURE: support 321, lift 1.03">
<path fill="none" stroke="#4d4d4d" stroke-width="0.9" d="M1526.86,-401.7C1526.68,-366.62 1526.28,-286.46 1526.07,-246.21"/>
<polygon fill="#4d4d4d" stroke="#4d4d4d" stroke-width="0.9" points="1528,-246.26 1526.04,-240.77 1524.15,-246.28 1528,-246.26"/>
</a>
</g>
</g>
<!-- tier3 -->
<g id="node17" class="node">
<title>tier3</title>
<text xml:space="preserve" text-anchor="middle" x="76.95" y="-218.07" font-family="Times,serif" font-style="italic" font-size="10.00" fill="#808080">Crew &amp; external actions</text>
</g>
<!-- tier2&#45;&gt;tier3 -->
<!-- TURBULENCE_ENCOUNTER -->
<g id="node13" class="node">
<title>TURBULENCE_ENCOUNTER</title>
<path fill="#f7f7f7" stroke="#333333" stroke-width="0.8" d="M1617.4,-336.2C1617.4,-336.2 1568.5,-336.2 1568.5,-336.2 1562.5,-336.2 1556.5,-330.2 1556.5,-324.2 1556.5,-324.2 1556.5,-312.2 1556.5,-312.2 1556.5,-306.2 1562.5,-300.2 1568.5,-300.2 1568.5,-300.2 1617.4,-300.2 1617.4,-300.2 1623.4,-300.2 1629.4,-306.2 1629.4,-312.2 1629.4,-312.2 1629.4,-324.2 1629.4,-324.2 1629.4,-330.2 1623.4,-336.2 1617.4,-336.2"/>
<text xml:space="preserve" text-anchor="start" x="1563.7" y="-323.7" font-family="Times,serif" font-size="10.00">Turbulence</text>
<text xml:space="preserve" text-anchor="start" x="1567.08" y="-313.7" font-family="Times,serif" font-size="10.00">encounter</text>
<text xml:space="preserve" text-anchor="start" x="1573.08" y="-305.6" font-family="Times,serif" font-size="8.00" fill="#808080">n = 1,472</text>
</g>
<!-- LOSS_OF_CONTROL_INFLIGHT -->
<g id="node34" class="node">
<title>LOSS_OF_CONTROL_INFLIGHT</title>
<path fill="#f7f7f7" stroke="#333333" stroke-width="0.8" d="M1242.28,-36C1242.28,-36 1177.62,-36 1177.62,-36 1171.62,-36 1165.62,-30 1165.62,-24 1165.62,-24 1165.62,-12 1165.62,-12 1165.62,-6 1171.62,0 1177.62,0 1177.62,0 1242.28,0 1242.28,0 1248.28,0 1254.28,-6 1254.28,-12 1254.28,-12 1254.28,-24 1254.28,-24 1254.28,-30 1248.28,-36 1242.28,-36"/>
<text xml:space="preserve" text-anchor="start" x="1172.83" y="-23.5" font-family="Times,serif" font-size="10.00">Loss of control</text>
<text xml:space="preserve" text-anchor="start" x="1190.08" y="-13.5" font-family="Times,serif" font-size="10.00">in flight</text>
<text xml:space="preserve" text-anchor="start" x="1190.08" y="-5.4" font-family="Times,serif" font-size="8.00" fill="#808080">n = 9,813</text>
</g>
<!-- TURBULENCE_ENCOUNTER&#45;&gt;LOSS_OF_CONTROL_INFLIGHT -->
<g id="edge37" class="edge">
<title>TURBULENCE_ENCOUNTER&#45;&gt;LOSS_OF_CONTROL_INFLIGHT</title>
<g id="a_edge37"><a xlink:title="TURBULENCE_ENCOUNTER &#45;&gt; LOSS_OF_CONTROL_INFLIGHT: support 334, lift 1.29">
<path fill="none" stroke="#4d4d4d" stroke-width="0.91" d="M1593.89,-299.88C1594.3,-275.77 1591.66,-231.84 1569.95,-203.2 1492,-100.34 1340.36,-50.22 1261.06,-30.14"/>
<polygon fill="#4d4d4d" stroke="#4d4d4d" stroke-width="0.91" points="1261.69,-28.31 1255.89,-28.85 1260.76,-32.05 1261.69,-28.31"/>
</a>
</g>
</g>
<!-- LOW_VISIBILITY_OR_IMC -->
<g id="node14" class="node">
<title>LOW_VISIBILITY_OR_IMC</title>
<path fill="#f7f7f7" stroke="#333333" stroke-width="0.8" d="M1371.9,-336.2C1371.9,-336.2 1284,-336.2 1284,-336.2 1278,-336.2 1272,-330.2 1272,-324.2 1272,-324.2 1272,-312.2 1272,-312.2 1272,-306.2 1278,-300.2 1284,-300.2 1284,-300.2 1371.9,-300.2 1371.9,-300.2 1377.9,-300.2 1383.9,-306.2 1383.9,-312.2 1383.9,-312.2 1383.9,-324.2 1383.9,-324.2 1383.9,-330.2 1377.9,-336.2 1371.9,-336.2"/>
<text xml:space="preserve" text-anchor="start" x="1279.2" y="-318.7" font-family="Times,serif" font-size="10.00">Low visibility / IMC</text>
<text xml:space="preserve" text-anchor="start" x="1308.08" y="-310.6" font-family="Times,serif" font-size="8.00" fill="#808080">n = 2,605</text>
</g>
<!-- DECISION_INAPPROPRIATE -->
<g id="node18" class="node">
<title>DECISION_INAPPROPRIATE</title>
<path fill="#f7f7f7" stroke="#333333" stroke-width="0.8" d="M1122.03,-239.2C1122.03,-239.2 1061.88,-239.2 1061.88,-239.2 1055.88,-239.2 1049.88,-233.2 1049.88,-227.2 1049.88,-227.2 1049.88,-215.2 1049.88,-215.2 1049.88,-209.2 1055.88,-203.2 1061.88,-203.2 1061.88,-203.2 1122.03,-203.2 1122.03,-203.2 1128.03,-203.2 1134.03,-209.2 1134.03,-215.2 1134.03,-215.2 1134.03,-227.2 1134.03,-227.2 1134.03,-233.2 1128.03,-239.2 1122.03,-239.2"/>
<text xml:space="preserve" text-anchor="start" x="1070.2" y="-226.7" font-family="Times,serif" font-size="10.00">Decision</text>
<text xml:space="preserve" text-anchor="start" x="1057.08" y="-216.7" font-family="Times,serif" font-size="10.00">inappropriate</text>
<text xml:space="preserve" text-anchor="start" x="1069.45" y="-208.6" font-family="Times,serif" font-size="8.00" fill="#808080">n = 21,932</text>
</g>
<!-- LOW_VISIBILITY_OR_IMC&#45;&gt;DECISION_INAPPROPRIATE -->
<g id="edge12" class="edge">
<title>LOW_VISIBILITY_OR_IMC&#45;&gt;DECISION_INAPPROPRIATE</title>
<g id="a_edge12"><a xlink:title="LOW_VISIBILITY_OR_IMC &#45;&gt; DECISION_INAPPROPRIATE: support 1,131, lift 1.11">
<path fill="none" stroke="#4d4d4d" stroke-width="1.25" d="M1284.94,-299.89C1244.3,-283.53 1183.41,-259.02 1140.92,-241.91"/>
<polygon fill="#4d4d4d" stroke="#4d4d4d" stroke-width="1.25" points="1141.84,-240.21 1136.02,-239.94 1140.41,-243.78 1141.84,-240.21"/>
</a>
</g>
</g>
<!-- LOW_VISIBILITY_OR_IMC&#45;&gt;PERCEPTION_FAILURE -->
<g id="edge20" class="edge">
<title>LOW_VISIBILITY_OR_IMC&#45;&gt;PERCEPTION_FAILURE</title>
<g id="a_edge20"><a xlink:title="LOW_VISIBILITY_OR_IMC &#45;&gt; PERCEPTION_FAILURE: support 662, lift 1.53">
<path fill="none" stroke="#4d4d4d" stroke-width="1.07" d="M1363.81,-300C1398.04,-283.57 1449.57,-258.84 1485.32,-241.7"/>
<polygon fill="#4d4d4d" stroke="#4d4d4d" stroke-width="1.07" points="1485.77,-243.61 1489.9,-239.5 1484.1,-240.14 1485.77,-243.61"/>
</a>
</g>
</g>
<!-- SPATIAL_DISORIENTATION -->
<g id="node22" class="node">
<title>SPATIAL_DISORIENTATION</title>
<path fill="#f7f7f7" stroke="#333333" stroke-width="0.8" d="M1358.4,-239.2C1358.4,-239.2 1297.5,-239.2 1297.5,-239.2 1291.5,-239.2 1285.5,-233.2 1285.5,-227.2 1285.5,-227.2 1285.5,-215.2 1285.5,-215.2 1285.5,-209.2 1291.5,-203.2 1297.5,-203.2 1297.5,-203.2 1358.4,-203.2 1358.4,-203.2 1364.4,-203.2 1370.4,-209.2 1370.4,-215.2 1370.4,-215.2 1370.4,-227.2 1370.4,-227.2 1370.4,-233.2 1364.4,-239.2 1358.4,-239.2"/>
<text xml:space="preserve" text-anchor="start" x="1310.33" y="-226.7" font-family="Times,serif" font-size="10.00">Spatial</text>
<text xml:space="preserve" text-anchor="start" x="1292.7" y="-216.7" font-family="Times,serif" font-size="10.00">disorientation</text>
<text xml:space="preserve" text-anchor="start" x="1311.83" y="-208.6" font-family="Times,serif" font-size="8.00" fill="#808080">n = 934</text>
</g>
<!-- LOW_VISIBILITY_OR_IMC&#45;&gt;SPATIAL_DISORIENTATION -->
<g id="edge29" class="edge">
<title>LOW_VISIBILITY_OR_IMC&#45;&gt;SPATIAL_DISORIENTATION</title>
<g id="a_edge29"><a xlink:title="LOW_VISIBILITY_OR_IMC &#45;&gt; SPATIAL_DISORIENTATION: support 459, lift 10.55">
<path fill="none" stroke="#4d4d4d" stroke-width="0.98" d="M1327.95,-300.22C1327.95,-285.18 1327.95,-263.07 1327.95,-246.22"/>
<polygon fill="#4d4d4d" stroke="#4d4d4d" stroke-width="0.98" points="1329.88,-246.34 1327.95,-240.84 1326.03,-246.34 1329.88,-246.34"/>
</a>
</g>
</g>
<!-- LOSS_OF_CONTROL_GROUND -->
<g id="node35" class="node">
<title>LOSS_OF_CONTROL_GROUND</title>
<path fill="#f7f7f7" stroke="#333333" stroke-width="0.8" d="M1734.28,-36C1734.28,-36 1669.62,-36 1669.62,-36 1663.62,-36 1657.62,-30 1657.62,-24 1657.62,-24 1657.62,-12 1657.62,-12 1657.62,-6 1663.62,0 1669.62,0 1669.62,0 1734.28,0 1734.28,0 1740.28,0 1746.28,-6 1746.28,-12 1746.28,-12 1746.28,-24 1746.28,-24 1746.28,-30 1740.28,-36 1734.28,-36"/>
<text xml:space="preserve" text-anchor="start" x="1664.83" y="-23.5" font-family="Times,serif" font-size="10.00">Loss of control</text>
<text xml:space="preserve" text-anchor="start" x="1675.33" y="-13.5" font-family="Times,serif" font-size="10.00">on ground</text>
<text xml:space="preserve" text-anchor="start" x="1682.08" y="-5.4" font-family="Times,serif" font-size="8.00" fill="#808080">n = 8,635</text>
</g>
<!-- WIND_SHEAR_OR_GUST&#45;&gt;LOSS_OF_CONTROL_GROUND -->
<g id="edge35" class="edge">
<title>WIND_SHEAR_OR_GUST&#45;&gt;LOSS_OF_CONTROL_GROUND</title>
<g id="a_edge35"><a xlink:title="WIND_SHEAR_OR_GUST &#45;&gt; LOSS_OF_CONTROL_GROUND: support 344, lift 1.01">
<path fill="none" stroke="#4d4d4d" stroke-width="0.91" d="M1811.21,-299.88C1791.47,-249.13 1733.74,-100.72 1711.16,-42.67"/>
<polygon fill="#4d4d4d" stroke="#4d4d4d" stroke-width="0.91" points="1712.99,-42.08 1709.21,-37.65 1709.41,-43.48 1712.99,-42.08"/>
</a>
</g>
</g>
<!-- RUNWAY_CONDITION_HAZARD -->
<g id="node16" class="node">
<title>RUNWAY_CONDITION_HAZARD</title>
<path fill="#f7f7f7" stroke="#333333" stroke-width="0.8" d="M1742.9,-336.2C1742.9,-336.2 1661,-336.2 1661,-336.2 1655,-336.2 1649,-330.2 1649,-324.2 1649,-324.2 1649,-312.2 1649,-312.2 1649,-306.2 1655,-300.2 1661,-300.2 1661,-300.2 1742.9,-300.2 1742.9,-300.2 1748.9,-300.2 1754.9,-306.2 1754.9,-312.2 1754.9,-312.2 1754.9,-324.2 1754.9,-324.2 1754.9,-330.2 1748.9,-336.2 1742.9,-336.2"/>
<text xml:space="preserve" text-anchor="start" x="1656.2" y="-323.7" font-family="Times,serif" font-size="10.00">Runway condition</text>
<text xml:space="preserve" text-anchor="start" x="1684.33" y="-313.7" font-family="Times,serif" font-size="10.00">hazard</text>
<text xml:space="preserve" text-anchor="start" x="1682.08" y="-305.6" font-family="Times,serif" font-size="8.00" fill="#808080">n = 4,378</text>
</g>
<!-- RUNWAY_CONDITION_HAZARD&#45;&gt;LOSS_OF_CONTROL_GROUND -->
<g id="edge19" class="edge">
<title>RUNWAY_CONDITION_HAZARD&#45;&gt;LOSS_OF_CONTROL_GROUND</title>
<g id="a_edge19"><a xlink:title="RUNWAY_CONDITION_HAZARD &#45;&gt; LOSS_OF_CONTROL_GROUND: support 762, lift 1.13">
<path fill="none" stroke="#4d4d4d" stroke-width="1.11" d="M1701.95,-299.88C1701.95,-249.34 1701.95,-101.92 1701.95,-43.38"/>
<polygon fill="#4d4d4d" stroke="#4d4d4d" stroke-width="1.11" points="1703.88,-43.55 1701.95,-38.05 1700.03,-43.55 1703.88,-43.55"/>
</a>
</g>
</g>
<!-- tier4 -->
<g id="node25" class="node">
<title>tier4</title>
<text xml:space="preserve" text-anchor="middle" x="76.95" y="-116.47" font-family="Times,serif" font-style="italic" font-size="10.00" fill="#808080">Aircraft system failures</text>
</g>
<!-- tier3&#45;&gt;tier4 -->
<!-- DECISION_INAPPROPRIATE&#45;&gt;SPATIAL_DISORIENTATION -->
<g id="edge31" class="edge">
<title>DECISION_INAPPROPRIATE&#45;&gt;SPATIAL_DISORIENTATION</title>
<g id="a_edge31"><a xlink:title="DECISION_INAPPROPRIATE &#45;&gt; SPATIAL_DISORIENTATION: support 431, lift 1.18">
<path fill="none" stroke="#4d4d4d" stroke-width="0.96" d="M1108.72,-239.43C1120.22,-250.53 1136.51,-263.69 1153.95,-269.7 1201.01,-285.92 1218.89,-285.92 1265.95,-269.7 1281.08,-264.49 1295.33,-253.9 1306.35,-243.94"/>
<polygon fill="#4d4d4d" stroke="#4d4d4d" stroke-width="0.96" points="1307.41,-245.59 1310.12,-240.43 1304.79,-242.77 1307.41,-245.59"/>
</a>
</g>
</g>
<!-- CONTROL_INPUT_IMPROPER -->
<g id="node19" class="node">
<title>CONTROL_INPUT_IMPROPER</title>
<path fill="#f7f7f7" stroke="#333333" stroke-width="0.8" d="M1459.9,-239.2C1459.9,-239.2 1402,-239.2 1402,-239.2 1396,-239.2 1390,-233.2 1390,-227.2 1390,-227.2 1390,-215.2 1390,-215.2 1390,-209.2 1396,-203.2 1402,-203.2 1402,-203.2 1459.9,-203.2 1459.9,-203.2 1465.9,-203.2 1471.9,-209.2 1471.9,-215.2 1471.9,-215.2 1471.9,-227.2 1471.9,-227.2 1471.9,-233.2 1465.9,-239.2 1459.9,-239.2"/>
<text xml:space="preserve" text-anchor="start" x="1397.2" y="-226.7" font-family="Times,serif" font-size="10.00">Control input</text>
<text xml:space="preserve" text-anchor="start" x="1407.33" y="-216.7" font-family="Times,serif" font-size="10.00">improper</text>
<text xml:space="preserve" text-anchor="start" x="1408.45" y="-208.6" font-family="Times,serif" font-size="8.00" fill="#808080">n = 28,006</text>
</g>
<!-- CONTROL_INPUT_IMPROPER&#45;&gt;STALL -->
<g id="edge9" class="edge">
<title>CONTROL_INPUT_IMPROPER&#45;&gt;STALL</title>
<g id="a_edge9"><a xlink:title="CONTROL_INPUT_IMPROPER &#45;&gt; STALL: support 4,357, lift 1.31">
<path fill="none" stroke="#4d4d4d" stroke-width="1.97" d="M1404.08,-202.87C1347.29,-166.25 1215.18,-81.06 1152.76,-40.81"/>
<polygon fill="#4d4d4d" stroke="#4d4d4d" stroke-width="1.97" points="1154.04,-39.34 1148.37,-37.97 1151.95,-42.57 1154.04,-39.34"/>
</a>
</g>
</g>
<!-- CONTROL_INPUT_IMPROPER&#45;&gt;LOSS_OF_CONTROL_GROUND -->
<g id="edge7" class="edge">
<title>CONTROL_INPUT_IMPROPER&#45;&gt;LOSS_OF_CONTROL_GROUND</title>
<g id="a_edge7"><a xlink:title="CONTROL_INPUT_IMPROPER &#45;&gt; LOSS_OF_CONTROL_GROUND: support 5,557, lift 1.28">
<path fill="none" stroke="#4d4d4d" stroke-width="2.16" d="M1454.06,-203.05C1502.93,-166.76 1616.79,-82.23 1671.52,-41.6"/>
<polygon fill="#4d4d4d" stroke="#4d4d4d" stroke-width="2.16" points="1672.62,-43.17 1675.89,-38.35 1670.33,-40.08 1672.62,-43.17"/>
</a>
</g>
</g>
<!-- SPATIAL_DISORIENTATION&#45;&gt;LOSS_OF_CONTROL_INFLIGHT -->
<g id="edge30" class="edge">
<title>SPATIAL_DISORIENTATION&#45;&gt;LOSS_OF_CONTROL_INFLIGHT</title>
<g id="a_edge30"><a xlink:title="SPATIAL_DISORIENTATION &#45;&gt; LOSS_OF_CONTROL_INFLIGHT: support 448, lift 2.73">
<path fill="none" stroke="#4d4d4d" stroke-width="0.97" d="M1317.89,-203.05C1296.74,-166.98 1247.64,-83.26 1223.64,-42.35"/>
<polygon fill="#4d4d4d" stroke="#4d4d4d" stroke-width="0.97" points="1225.34,-41.43 1220.9,-37.66 1222.02,-43.38 1225.34,-41.43"/>
</a>
</g>
</g>
<!-- PILOT_INCAPACITATION_OR_IMPAIRMENT -->
<g id="node23" class="node">
<title>PILOT_INCAPACITATION_OR_IMPAIRMENT</title>
<path fill="#f7f7f7" stroke="#333333" stroke-width="0.8" d="M1253.53,-239.2C1253.53,-239.2 1166.38,-239.2 1166.38,-239.2 1160.38,-239.2 1154.38,-233.2 1154.38,-227.2 1154.38,-227.2 1154.38,-215.2 1154.38,-215.2 1154.38,-209.2 1160.38,-203.2 1166.38,-203.2 1166.38,-203.2 1253.53,-203.2 1253.53,-203.2 1259.53,-203.2 1265.53,-209.2 1265.53,-215.2 1265.53,-215.2 1265.53,-227.2 1265.53,-227.2 1265.53,-233.2 1259.53,-239.2 1253.53,-239.2"/>
<text xml:space="preserve" text-anchor="start" x="1161.58" y="-226.7" font-family="Times,serif" font-size="10.00">Pilot incapacitation</text>
<text xml:space="preserve" text-anchor="start" x="1177.33" y="-216.7" font-family="Times,serif" font-size="10.00">/ impairment</text>
<text xml:space="preserve" text-anchor="start" x="1190.08" y="-208.6" font-family="Times,serif" font-size="8.00" fill="#808080">n = 1,322</text>
</g>
<!-- PILOT_INCAPACITATION_OR_IMPAIRMENT&#45;&gt;LOSS_OF_CONTROL_INFLIGHT -->
<g id="edge34" class="edge">
<title>PILOT_INCAPACITATION_OR_IMPAIRMENT&#45;&gt;LOSS_OF_CONTROL_INFLIGHT</title>
<g id="a_edge34"><a xlink:title="PILOT_INCAPACITATION_OR_IMPAIRMENT &#45;&gt; LOSS_OF_CONTROL_INFLIGHT: support 360, lift 1.55">
<path fill="none" stroke="#4d4d4d" stroke-width="0.92" d="M1209.95,-203.05C1209.95,-167.2 1209.95,-84.29 1209.95,-43.11"/>
<polygon fill="#4d4d4d" stroke="#4d4d4d" stroke-width="0.92" points="1211.88,-43.29 1209.95,-37.79 1208.03,-43.29 1211.88,-43.29"/>
</a>
</g>
</g>
<!-- TRAINING_OR_CURRENCY_GAP -->
<g id="node24" class="node">
<title>TRAINING_OR_CURRENCY_GAP</title>
<path fill="#f7f7f7" stroke="#333333" stroke-width="0.8" d="M1017.9,-239.2C1017.9,-239.2 960,-239.2 960,-239.2 954,-239.2 948,-233.2 948,-227.2 948,-227.2 948,-215.2 948,-215.2 948,-209.2 954,-203.2 960,-203.2 960,-203.2 1017.9,-203.2 1017.9,-203.2 1023.9,-203.2 1029.9,-209.2 1029.9,-215.2 1029.9,-215.2 1029.9,-227.2 1029.9,-227.2 1029.9,-233.2 1023.9,-239.2 1017.9,-239.2"/>
<text xml:space="preserve" text-anchor="start" x="960.45" y="-226.7" font-family="Times,serif" font-size="10.00">Training or</text>
<text xml:space="preserve" text-anchor="start" x="955.2" y="-216.7" font-family="Times,serif" font-size="10.00">currency gap</text>
<text xml:space="preserve" text-anchor="start" x="969.08" y="-208.6" font-family="Times,serif" font-size="8.00" fill="#808080">n = 1,083</text>
</g>
<!-- TRAINING_OR_CURRENCY_GAP&#45;&gt;CONTROL_INPUT_IMPROPER -->
<g id="edge25" class="edge">
<title>TRAINING_OR_CURRENCY_GAP&#45;&gt;CONTROL_INPUT_IMPROPER</title>
<g id="a_edge25"><a xlink:title="TRAINING_OR_CURRENCY_GAP &#45;&gt; CONTROL_INPUT_IMPROPER: support 555, lift 1.02">
<path fill="none" stroke="#4d4d4d" stroke-width="1.02" d="M1005.39,-239.43C1016.68,-250.52 1032.71,-263.68 1049.95,-269.7 1117.09,-293.14 1302.81,-293.14 1369.95,-269.7 1384.77,-264.53 1398.69,-254.08 1409.47,-244.21"/>
<polygon fill="#4d4d4d" stroke="#4d4d4d" stroke-width="1.02" points="1410.72,-245.67 1413.39,-240.49 1408.07,-242.88 1410.72,-245.67"/>
</a>
</g>
</g>
<!-- tier5 -->
<g id="node32" class="node">
<title>tier5</title>
<text xml:space="preserve" text-anchor="middle" x="76.95" y="-14.88" font-family="Times,serif" font-style="italic" font-size="10.00" fill="#808080">Aerodynamic states</text>
</g>
<!-- tier4&#45;&gt;tier5 -->
<!-- ENGINE_FAILURE&#45;&gt;DECISION_INAPPROPRIATE -->
<g id="edge6" class="edge">
<title>ENGINE_FAILURE&#45;&gt;DECISION_INAPPROPRIATE</title>
<g id="a_edge6"><a xlink:title="ENGINE_FAILURE &#45;&gt; DECISION_INAPPROPRIATE: support 6,544, lift 1.02">
<path fill="none" stroke="#4d4d4d" stroke-width="2.3" d="M830.83,-134.92C881.29,-151.39 966.6,-179.24 1039.95,-203.2 1040.34,-203.33 1040.74,-203.46 1041.14,-203.59"/>
<polygon fill="#4d4d4d" stroke="#4d4d4d" stroke-width="2.3" points="1040.53,-205.41 1046.36,-205.29 1041.73,-201.76 1040.53,-205.41"/>
</a>
</g>
</g>
<!-- FUEL_SYSTEM_ANOMALY&#45;&gt;FUEL_EXHAUSTION_OR_STARVATION -->
<g id="edge32" class="edge">
<title>FUEL_SYSTEM_ANOMALY&#45;&gt;FUEL_EXHAUSTION_OR_STARVATION</title>
<g id="a_edge32"><a xlink:title="FUEL_SYSTEM_ANOMALY &#45;&gt; FUEL_EXHAUSTION_OR_STARVATION: support 379, lift 2.34">
<path fill="none" stroke="#4d4d4d" stroke-width="0.93" d="M685.59,-137.97C687.46,-188.68 692.92,-336.59 695.07,-394.83"/>
<polygon fill="#4d4d4d" stroke="#4d4d4d" stroke-width="0.93" points="693.13,-394.65 695.26,-400.07 696.98,-394.5 693.13,-394.65"/>
</a>
</g>
</g>
<!-- FUEL_SYSTEM_ANOMALY&#45;&gt;ENGINE_FAILURE -->
<g id="edge15" class="edge">
<title>FUEL_SYSTEM_ANOMALY&#45;&gt;ENGINE_FAILURE</title>
<g id="a_edge15"><a xlink:title="FUEL_SYSTEM_ANOMALY &#45;&gt; ENGINE_FAILURE: support 954, lift 1.94">
<path fill="none" stroke="#4d4d4d" stroke-width="1.19" d="M723.2,-119.6C727.45,-119.6 731.71,-119.6 735.96,-119.6"/>
<polygon fill="#4d4d4d" stroke="#4d4d4d" stroke-width="1.19" points="735.82,-121.53 741.32,-119.6 735.82,-117.68 735.82,-121.53"/>
</a>
</g>
</g>
<!-- AIRFRAME_STRUCTURAL_FAILURE&#45;&gt;LOSS_OF_CONTROL_INFLIGHT -->
<g id="edge24" class="edge">
<title>AIRFRAME_STRUCTURAL_FAILURE&#45;&gt;LOSS_OF_CONTROL_INFLIGHT</title>
<g id="a_edge24"><a xlink:title="AIRFRAME_STRUCTURAL_FAILURE &#45;&gt; LOSS_OF_CONTROL_INFLIGHT: support 560, lift 1.17">
<path fill="none" stroke="#4d4d4d" stroke-width="1.03" d="M525,-100.59C528.3,-99.21 531.65,-97.97 534.95,-97 800.98,-18.64 884.23,-91.49 1155.95,-36 1156.82,-35.82 1157.69,-35.64 1158.57,-35.44"/>
<polygon fill="#4d4d4d" stroke="#4d4d4d" stroke-width="1.03" points="1158.93,-37.34 1163.83,-34.19 1158.04,-33.59 1158.93,-37.34"/>
</a>
</g>
</g>
<!-- CONTROL_SURFACE_ANOMALY&#45;&gt;LOSS_OF_CONTROL_INFLIGHT -->
<g id="edge21" class="edge">
<title>CONTROL_SURFACE_ANOMALY&#45;&gt;LOSS_OF_CONTROL_INFLIGHT</title>
<g id="a_edge21"><a xlink:title="CONTROL_SURFACE_ANOMALY &#45;&gt; LOSS_OF_CONTROL_INFLIGHT: support 624, lift 1.97">
<path fill="none" stroke="#4d4d4d" stroke-width="1.06" d="M436.13,-101.22C441.06,-99.59 446.08,-98.13 450.95,-97 757.37,-26.15 847.45,-97.14 1155.95,-36 1156.82,-35.83 1157.69,-35.65 1158.57,-35.46"/>
<polygon fill="#4d4d4d" stroke="#4d4d4d" stroke-width="1.06" points="1158.88,-37.36 1163.79,-34.23 1158,-33.61 1158.88,-37.36"/>
</a>
</g>
</g>
<!-- STALL&#45;&gt;LOSS_OF_CONTROL_INFLIGHT -->
<g id="edge11" class="edge">
<title>STALL&#45;&gt;LOSS_OF_CONTROL_INFLIGHT</title>
<g id="a_edge11"><a xlink:title="STALL &#45;&gt; LOSS_OF_CONTROL_INFLIGHT: support 2,428, lift 2.08">
<path fill="none" stroke="#4d4d4d" stroke-width="1.6" d="M1146.32,-18C1150.16,-18 1154,-18 1157.83,-18"/>
<polygon fill="#4d4d4d" stroke="#4d4d4d" stroke-width="1.6" points="1157.79,-19.93 1163.29,-18 1157.79,-16.08 1157.79,-19.93"/>
</a>
</g>
</g>
</g>
</svg>
