<?xml version="1.0" encoding="UTF-8" standalone="no"?>
<!DOCTYPE svg PUBLIC "-//W3C//DTD SVG 1.1//EN"
 "http://www.w3.org/Graphics/SVG/1.1/DTD/svg11.dtd">
<!-- Generated by graphviz version 14.1.2 (20260126.1125)
 -->
<!-- Title: G Pages: 1 -->
<svg width="723pt" height="268pt"
 viewBox="0.00 0.00 723.00 268.00" xmlns="http://www.w3.org/2000/svg" xmlns:xlink="http://www.w3.org/1999/xlink">
<g id="graph0" class="graph" transform="scale(1 1) rotate(0) translate(4 263.92)">
<title>G</title>
<polygon fill="white" stroke="none" points="-4,4 -4,-263.92 719.46,-263.92 719.46,4 -4,4"/>
<!-- tier1 -->
<g id="node1" class="node">
<title>tier1</title>
<text xml:space="preserve" text-anchor="middle" x="77.67" y="-233.48" font-family="Times,serif" font-style="italic" font-size="10.00" fill="#78909c">Latent / ambient conditions</text>
</g>
<!-- tier3 -->
<g id="node5" class="node">
<title>tier3</title>
<text xml:space="preserve" text-anchor="middle" x="77.67" y="-121.84" font-family="Times,serif" font-style="italic" font-size="10.00" fill="#78909c">Crew &amp; external actions</text>
</g>
<!-- tier1&#45;&gt;tier3 -->
<!-- LATENT_MECHANICAL_DEFECT -->
<g id="node2" class="node">
<title>LATENT_MECHANICAL_DEFECT</title>
<path fill="#cce3f0" stroke="#0072b2" stroke-width="0.9" d="M557.47,-259.92C557.47,-259.92 507.88,-259.92 507.88,-259.92 501.88,-259.92 495.88,-253.92 495.88,-247.92 495.88,-247.92 495.88,-225.28 495.88,-225.28 495.88,-219.28 501.88,-213.28 507.88,-213.28 507.88,-213.28 557.47,-213.28 557.47,-213.28 563.47,-213.28 569.47,-219.28 569.47,-225.28 569.47,-225.28 569.47,-247.92 569.47,-247.92 569.47,-253.92 563.47,-259.92 557.47,-259.92"/>
<text xml:space="preserve" text-anchor="start" x="516.17" y="-247.1" font-family="Times,serif" font-size="10.00" fill="#263238">Latent</text>
<text xml:space="preserve" text-anchor="start" x="503.8" y="-237.1" font-family="Times,serif" font-size="10.00" fill="#263238">mechanical</text>
<text xml:space="preserve" text-anchor="start" x="516.92" y="-227.1" font-family="Times,serif" font-size="10.00" fill="#263238">defect</text>
<text xml:space="preserve" text-anchor="start" x="516.55" y="-219" font-family="Times,serif" font-size="8.00" fill="#546e7a">n = 361</text>
</g>
<!-- CONTROL_INPUT_IMPROPER -->
<g id="node7" class="node">
<title>CONTROL_INPUT_IMPROPER</title>
<path fill="#cce3f0" stroke="#0072b2" stroke-width="0.9" d="M507.34,-143.28C507.34,-143.28 448,-143.28 448,-143.28 442,-143.28 436,-137.28 436,-131.28 436,-131.28 436,-118.64 436,-118.64 436,-112.64 442,-106.64 448,-106.64 448,-106.64 507.34,-106.64 507.34,-106.64 513.34,-106.64 519.34,-112.64 519.34,-118.64 519.34,-118.64 519.34,-131.28 519.34,-131.28 519.34,-137.28 513.34,-143.28 507.34,-143.28"/>
<text xml:space="preserve" text-anchor="start" x="443.92" y="-130.46" font-family="Times,serif" font-size="10.00" fill="#263238">Control input</text>
<text xml:space="preserve" text-anchor="start" x="454.05" y="-120.46" font-family="Times,serif" font-size="10.00" fill="#263238">improper</text>
<text xml:space="preserve" text-anchor="start" x="457.8" y="-112.36" font-family="Times,serif" font-size="8.00" fill="#546e7a">n = 2,601</text>
</g>
<!-- LATENT_MECHANICAL_DEFECT&#45;&gt;CONTROL_INPUT_IMPROPER -->
<g id="edge11" class="edge">
<title>LATENT_MECHANICAL_DEFECT&#45;&gt;CONTROL_INPUT_IMPROPER</title>
<g id="a_edge11"><a xlink:title="LATENT_MECHANICAL_DEFECT &#45;&gt; CONTROL_INPUT_IMPROPER: support 156, stability 0.90">
<path fill="none" stroke="#546e7a" stroke-width="1.03" d="M521.27,-212.88C512,-194.4 498.96,-168.4 489.56,-149.65"/>
<polygon fill="#546e7a" stroke="#546e7a" stroke-width="1.03" points="491.4,-149.04 487.22,-144.99 487.96,-150.77 491.4,-149.04"/>
</a>
</g>
</g>
<!-- AIRCRAFT_WEIGHT_OR_BALANCE_OUT_OF_LIMITS -->
<g id="node3" class="node">
<title>AIRCRAFT_WEIGHT_OR_BALANCE_OUT_OF_LIMITS</title>
<path fill="#cce3f0" stroke="#0072b2" stroke-width="0.9" d="M460.97,-254.92C460.97,-254.92 384.38,-254.92 384.38,-254.92 378.38,-254.92 372.38,-248.92 372.38,-242.92 372.38,-242.92 372.38,-230.28 372.38,-230.28 372.38,-224.28 378.38,-218.28 384.38,-218.28 384.38,-218.28 460.97,-218.28 460.97,-218.28 466.97,-218.28 472.97,-224.28 472.97,-230.28 472.97,-230.28 472.97,-242.92 472.97,-242.92 472.97,-248.92 466.97,-254.92 460.97,-254.92"/>
<text xml:space="preserve" text-anchor="start" x="380.3" y="-242.1" font-family="Times,serif" font-size="10.00" fill="#263238">Weight / balance</text>
<text xml:space="preserve" text-anchor="start" x="392.67" y="-232.1" font-family="Times,serif" font-size="10.00" fill="#263238">out of limits</text>
<text xml:space="preserve" text-anchor="start" x="406.55" y="-224" font-family="Times,serif" font-size="8.00" fill="#546e7a">n = 224</text>
</g>
<!-- AIRCRAFT_WEIGHT_OR_BALANCE_OUT_OF_LIMITS&#45;&gt;CONTROL_INPUT_IMPROPER -->
<g id="edge13" class="edge">
<title>AIRCRAFT_WEIGHT_OR_BALANCE_OUT_OF_LIMITS&#45;&gt;CONTROL_INPUT_IMPROPER</title>
<g id="a_edge13"><a xlink:title="AIRCRAFT_WEIGHT_OR_BALANCE_OUT_OF_LIMITS &#45;&gt; CONTROL_INPUT_IMPROPER: support 121, stability 0.50">
<path fill="none" stroke="#546e7a" stroke-width="0.96" d="M431.51,-217.98C440.81,-199.44 455.5,-170.15 465.81,-149.61"/>
<polygon fill="#546e7a" stroke="#546e7a" stroke-width="0.96" points="467.46,-150.61 468.2,-144.83 464.02,-148.88 467.46,-150.61"/>
</a>
</g>
</g>
<!-- HIGH_DENSITY_ALTITUDE -->
<g id="node4" class="node">
<title>HIGH_DENSITY_ALTITUDE</title>
<path fill="#cce3f0" stroke="#0072b2" stroke-width="0.9" d="M320.59,-254.92C320.59,-254.92 262.75,-254.92 262.75,-254.92 256.75,-254.92 250.75,-248.92 250.75,-242.92 250.75,-242.92 250.75,-230.28 250.75,-230.28 250.75,-224.28 256.75,-218.28 262.75,-218.28 262.75,-218.28 320.59,-218.28 320.59,-218.28 326.59,-218.28 332.59,-224.28 332.59,-230.28 332.59,-230.28 332.59,-242.92 332.59,-242.92 332.59,-248.92 326.59,-254.92 320.59,-254.92"/>
<text xml:space="preserve" text-anchor="start" x="258.67" y="-242.1" font-family="Times,serif" font-size="10.00" fill="#263238">High density</text>
<text xml:space="preserve" text-anchor="start" x="272.17" y="-232.1" font-family="Times,serif" font-size="10.00" fill="#263238">altitude</text>
<text xml:space="preserve" text-anchor="start" x="275.55" y="-224" font-family="Times,serif" font-size="8.00" fill="#546e7a">n = 245</text>
</g>
<!-- DECISION_INAPPROPRIATE -->
<g id="node6" class="node">
<title>DECISION_INAPPROPRIATE</title>
<path fill="#cce3f0" stroke="#0072b2" stroke-width="0.9" d="M401.47,-143.28C401.47,-143.28 339.88,-143.28 339.88,-143.28 333.88,-143.28 327.88,-137.28 327.88,-131.28 327.88,-131.28 327.88,-118.64 327.88,-118.64 327.88,-112.64 333.88,-106.64 339.88,-106.64 339.88,-106.64 401.47,-106.64 401.47,-106.64 407.47,-106.64 413.47,-112.64 413.47,-118.64 413.47,-118.64 413.47,-131.28 413.47,-131.28 413.47,-137.28 407.47,-143.28 401.47,-143.28"/>
<text xml:space="preserve" text-anchor="start" x="348.92" y="-130.46" font-family="Times,serif" font-size="10.00" fill="#263238">Decision</text>
<text xml:space="preserve" text-anchor="start" x="335.8" y="-120.46" font-family="Times,serif" font-size="10.00" fill="#263238">inappropriate</text>
<text xml:space="preserve" text-anchor="start" x="350.8" y="-112.36" font-family="Times,serif" font-size="8.00" fill="#546e7a">n = 1,205</text>
</g>
<!-- HIGH_DENSITY_ALTITUDE&#45;&gt;DECISION_INAPPROPRIATE -->
<g id="edge14" class="edge">
<title>HIGH_DENSITY_ALTITUDE&#45;&gt;DECISION_INAPPROPRIATE</title>
<g id="a_edge14"><a xlink:title="HIGH_DENSITY_ALTITUDE &#45;&gt; DECISION_INAPPROPRIATE: support 106, stability 0.40">
<path fill="none" stroke="#546e7a" stroke-width="0.93" d="M304.36,-217.98C317.84,-199.28 339.19,-169.64 354.01,-149.08"/>
<polygon fill="#546e7a" stroke="#546e7a" stroke-width="0.93" points="355.53,-150.26 357.19,-144.67 352.41,-148.01 355.53,-150.26"/>
</a>
</g>
</g>
<!-- STALL -->
<g id="node12" class="node">
<title>STALL</title>
<path fill="#cce3f0" stroke="#0072b2" stroke-width="0.9" d="M391.47,-36.32C391.47,-36.32 359.88,-36.32 359.88,-36.32 353.88,-36.32 347.88,-30.32 347.88,-24.32 347.88,-24.32 347.88,-12.32 347.88,-12.32 347.88,-6.32 353.88,-0.32 359.88,-0.32 359.88,-0.32 391.47,-0.32 391.47,-0.32 397.47,-0.32 403.47,-6.32 403.47,-12.32 403.47,-12.32 403.47,-24.32 403.47,-24.32 403.47,-30.32 397.47,-36.32 391.47,-36.32"/>
<text xml:space="preserve" text-anchor="start" x="364.42" y="-18.82" font-family="Times,serif" font-size="10.00" fill="#263238">Stall</text>
<text xml:space="preserve" text-anchor="start" x="355.8" y="-10.72" font-family="Times,serif" font-size="8.00" fill="#546e7a">n = 1,911</text>
</g>
<!-- HIGH_DENSITY_ALTITUDE&#45;&gt;STALL -->
<g id="edge10" class="edge">
<title>HIGH_DENSITY_ALTITUDE&#45;&gt;STALL</title>
<g id="a_edge10"><a xlink:title="HIGH_DENSITY_ALTITUDE &#45;&gt; STALL: support 165, stability 0.73">
<path fill="none" stroke="#546e7a" stroke-width="1.04" d="M265.88,-217.91C231.91,-192.35 179.4,-143.56 205.67,-101.64 235.22,-54.49 300.29,-33.68 340.8,-25.01"/>
<polygon fill="#546e7a" stroke="#546e7a" stroke-width="1.04" points="341.03,-26.92 346.03,-23.93 340.26,-23.15 341.03,-26.92"/>
</a>
</g>
</g>
<!-- tier5 -->
<g id="node11" class="node">
<title>tier5</title>
<text xml:space="preserve" text-anchor="middle" x="77.67" y="-15.2" font-family="Times,serif" font-style="italic" font-size="10.00" fill="#78909c">Aerodynamic states</text>
</g>
<!-- tier3&#45;&gt;tier5 -->
<!-- DECISION_INAPPROPRIATE&#45;&gt;STALL -->
<g id="edge6" class="edge">
<title>DECISION_INAPPROPRIATE&#45;&gt;STALL</title>
<g id="a_edge6"><a xlink:title="DECISION_INAPPROPRIATE &#45;&gt; STALL: support 697, stability 0.00">
<path fill="none" stroke="#546e7a" stroke-width="1.61" d="M371.52,-106.21C372.33,-89.17 373.57,-63.27 374.48,-44.18"/>
<polygon fill="#546e7a" stroke="#546e7a" stroke-width="1.61" points="376.39,-44.48 374.73,-38.9 372.55,-44.3 376.39,-44.48"/>
</a>
</g>
</g>
<!-- CONTROL_INPUT_IMPROPER&#45;&gt;STALL -->
<g id="edge4" class="edge">
<title>CONTROL_INPUT_IMPROPER&#45;&gt;STALL</title>
<g id="a_edge4"><a xlink:title="CONTROL_INPUT_IMPROPER &#45;&gt; STALL: support 1,560, stability 0.00">
<path fill="none" stroke="#546e7a" stroke-width="2.16" d="M460.37,-106.21C443.31,-88.71 417.15,-61.88 398.42,-42.66"/>
<polygon fill="#546e7a" stroke="#546e7a" stroke-width="2.16" points="399.88,-41.4 394.66,-38.8 397.12,-44.09 399.88,-41.4"/>
</a>
</g>
</g>
<!-- LOSS_OF_CONTROL_INFLIGHT -->
<g id="node13" class="node">
<title>LOSS_OF_CONTROL_INFLIGHT</title>
<path fill="#cce3f0" stroke="#0072b2" stroke-width="0.9" d="M560.72,-36.64C560.72,-36.64 494.63,-36.64 494.63,-36.64 488.63,-36.64 482.63,-30.64 482.63,-24.64 482.63,-24.64 482.63,-12 482.63,-12 482.63,-6 488.63,0 494.63,0 494.63,0 560.72,0 560.72,0 566.72,0 572.72,-6 572.72,-12 572.72,-12 572.72,-24.64 572.72,-24.64 572.72,-30.64 566.72,-36.64 560.72,-36.64"/>
<text xml:space="preserve" text-anchor="start" x="490.55" y="-23.82" font-family="Times,serif" font-size="10.00" fill="#263238">Loss of control</text>
<text xml:space="preserve" text-anchor="start" x="507.8" y="-13.82" font-family="Times,serif" font-size="10.00" fill="#263238">in flight</text>
<text xml:space="preserve" text-anchor="start" x="507.8" y="-5.72" font-family="Times,serif" font-size="8.00" fill="#546e7a">n = 2,937</text>
</g>
<!-- CONTROL_INPUT_IMPROPER&#45;&gt;LOSS_OF_CONTROL_INFLIGHT -->
<g id="edge3" class="edge">
<title>CONTROL_INPUT_IMPROPER&#45;&gt;LOSS_OF_CONTROL_INFLIGHT</title>
<g id="a_edge3"><a xlink:title="CONTROL_INPUT_IMPROPER &#45;&gt; LOSS_OF_CONTROL_INFLIGHT: support 1,830, stability 0.00">
<path fill="none" stroke="#546e7a" stroke-width="2.3" d="M486.15,-106.21C494.21,-89.35 506.41,-63.81 515.5,-44.78"/>
<polygon fill="#546e7a" stroke="#546e7a" stroke-width="2.3" points="517.18,-45.74 517.81,-39.95 513.7,-44.08 517.18,-45.74"/>
</a>
</g>
</g>
<!-- PROCEDURE_NOT_FOLLOWED -->
<g id="node8" class="node">
<title>PROCEDURE_NOT_FOLLOWED</title>
<path fill="#cce3f0" stroke="#0072b2" stroke-width="0.9" d="M292.59,-143.28C292.59,-143.28 228.75,-143.28 228.75,-143.28 222.75,-143.28 216.75,-137.28 216.75,-131.28 216.75,-131.28 216.75,-118.64 216.75,-118.64 216.75,-112.64 222.75,-106.64 228.75,-106.64 228.75,-106.64 292.59,-106.64 292.59,-106.64 298.59,-106.64 304.59,-112.64 304.59,-118.64 304.59,-118.64 304.59,-131.28 304.59,-131.28 304.59,-137.28 298.59,-143.28 292.59,-143.28"/>
<text xml:space="preserve" text-anchor="start" x="224.67" y="-130.46" font-family="Times,serif" font-size="10.00" fill="#263238">Procedure not</text>
<text xml:space="preserve" text-anchor="start" x="239.3" y="-120.46" font-family="Times,serif" font-size="10.00" fill="#263238">followed</text>
<text xml:space="preserve" text-anchor="start" x="244.55" y="-112.36" font-family="Times,serif" font-size="8.00" fill="#546e7a">n = 751</text>
</g>
<!-- PROCEDURE_NOT_FOLLOWED&#45;&gt;DECISION_INAPPROPRIATE -->
<g id="edge9" class="edge">
<title>PROCEDURE_NOT_FOLLOWED&#45;&gt;DECISION_INAPPROPRIATE</title>
<g id="a_edge9"><a xlink:title="PROCEDURE_NOT_FOLLOWED &#45;&gt; DECISION_INAPPROPRIATE: support 185, stability 0.47">
<path fill="none" stroke="#546e7a" stroke-width="1.07" d="M304.93,-124.96C310.11,-124.96 315.29,-124.96 320.46,-124.96"/>
<polygon fill="#546e7a" stroke="#546e7a" stroke-width="1.07" points="320.41,-126.89 325.91,-124.96 320.41,-123.04 320.41,-126.89"/>
</a>
</g>
</g>
<!-- PROCEDURE_NOT_FOLLOWED&#45;&gt;CONTROL_INPUT_IMPROPER -->
<g id="edge7" class="edge">
<title>PROCEDURE_NOT_FOLLOWED&#45;&gt;CONTROL_INPUT_IMPROPER</title>
<g id="a_edge7"><a xlink:title="PROCEDURE_NOT_FOLLOWED &#45;&gt; CONTROL_INPUT_IMPROPER: support 434, stability 0.90">
<path fill="none" stroke="#546e7a" stroke-width="1.38" d="M276.55,-143.68C289.05,-156.86 307.71,-173.42 328.17,-180.78 363.72,-193.57 377.77,-193.97 413.17,-180.78 430.38,-174.37 446.05,-161.07 457.64,-149.06"/>
<polygon fill="#546e7a" stroke="#546e7a" stroke-width="1.38" points="458.9,-150.53 461.24,-145.19 456.08,-147.91 458.9,-150.53"/>
</a>
</g>
</g>
<!-- PERCEPTION_FAILURE -->
<g id="node9" class="node">
<title>PERCEPTION_FAILURE</title>
<path fill="#cce3f0" stroke="#0072b2" stroke-width="0.9" d="M600.59,-143.28C600.59,-143.28 554.75,-143.28 554.75,-143.28 548.75,-143.28 542.75,-137.28 542.75,-131.28 542.75,-131.28 542.75,-118.64 542.75,-118.64 542.75,-112.64 548.75,-106.64 554.75,-106.64 554.75,-106.64 600.59,-106.64 600.59,-106.64 606.59,-106.64 612.59,-112.64 612.59,-118.64 612.59,-118.64 612.59,-131.28 612.59,-131.28 612.59,-137.28 606.59,-143.28 600.59,-143.28"/>
<text xml:space="preserve" text-anchor="start" x="550.67" y="-130.46" font-family="Times,serif" font-size="10.00" fill="#263238">Perception</text>
<text xml:space="preserve" text-anchor="start" x="561.17" y="-120.46" font-family="Times,serif" font-size="10.00" fill="#263238">failure</text>
<text xml:space="preserve" text-anchor="start" x="561.55" y="-112.36" font-family="Times,serif" font-size="8.00" fill="#546e7a">n = 311</text>
</g>
<!-- PERCEPTION_FAILURE&#45;&gt;LOSS_OF_CONTROL_INFLIGHT -->
<g id="edge8" class="edge">
<title>PERCEPTION_FAILURE&#45;&gt;LOSS_OF_CONTROL_INFLIGHT</title>
<g id="a_edge8"><a xlink:title="PERCEPTION_FAILURE &#45;&gt; LOSS_OF_CONTROL_INFLIGHT: support 201, stability 0.00">
<path fill="none" stroke="#546e7a" stroke-width="1.1" d="M569.19,-106.21C560.91,-88.89 548.27,-62.43 539.11,-43.26"/>
<polygon fill="#546e7a" stroke="#546e7a" stroke-width="1.1" points="540.85,-42.44 536.74,-38.31 537.38,-44.1 540.85,-42.44"/>
</a>
</g>
</g>
<!-- CREW_COORDINATION_FAILURE -->
<g id="node10" class="node">
<title>CREW_COORDINATION_FAILURE</title>
<path fill="#cce3f0" stroke="#0072b2" stroke-width="0.9" d="M703.47,-148.28C703.47,-148.28 647.88,-148.28 647.88,-148.28 641.88,-148.28 635.88,-142.28 635.88,-136.28 635.88,-136.28 635.88,-113.64 635.88,-113.64 635.88,-107.64 641.88,-101.64 647.88,-101.64 647.88,-101.64 703.47,-101.64 703.47,-101.64 709.47,-101.64 715.47,-107.64 715.47,-113.64 715.47,-113.64 715.47,-136.28 715.47,-136.28 715.47,-142.28 709.47,-148.28 703.47,-148.28"/>
<text xml:space="preserve" text-anchor="start" x="662.55" y="-135.46" font-family="Times,serif" font-size="10.00" fill="#263238">Crew</text>
<text xml:space="preserve" text-anchor="start" x="643.8" y="-125.46" font-family="Times,serif" font-size="10.00" fill="#263238">coordination</text>
<text xml:space="preserve" text-anchor="start" x="659.17" y="-115.46" font-family="Times,serif" font-size="10.00" fill="#263238">failure</text>
<text xml:space="preserve" text-anchor="start" x="659.55" y="-107.36" font-family="Times,serif" font-size="8.00" fill="#546e7a">n = 221</text>
</g>
<!-- CREW_COORDINATION_FAILURE&#45;&gt;LOSS_OF_CONTROL_INFLIGHT -->
<g id="edge12" class="edge">
<title>CREW_COORDINATION_FAILURE&#45;&gt;LOSS_OF_CONTROL_INFLIGHT</title>
<g id="a_edge12"><a xlink:title="CREW_COORDINATION_FAILURE &#45;&gt; LOSS_OF_CONTROL_INFLIGHT: support 126, stability 0.33">
<path fill="none" stroke="#546e7a" stroke-width="0.97" d="M643.56,-101.25C618.11,-83.26 582.8,-58.3 557.86,-40.67"/>
<polygon fill="#546e7a" stroke="#546e7a" stroke-width="0.97" points="559.19,-39.25 553.59,-37.65 556.97,-42.39 559.19,-39.25"/>
</a>
</g>
</g>
<!-- STALL&#45;&gt;LOSS_OF_CONTROL_INFLIGHT -->
<g id="edge5" class="edge">
<title>STALL&#45;&gt;LOSS_OF_CONTROL_INFLIGHT</title>
<g id="a_edge5"><a xlink:title="STALL &#45;&gt; LOSS_OF_CONTROL_INFLIGHT: support 1,407, stability 0.00">
<path fill="none" stroke="#546e7a" stroke-width="2.08" d="M403.87,-18.32C427.13,-18.32 450.39,-18.32 473.64,-18.32"/>
<polygon fill="#546e7a" stroke="#546e7a" stroke-width="2.08" points="473.57,-20.25 479.07,-18.32 473.57,-16.4 473.57,-20.25"/>
</a>
</g>
</g>
</g>
</svg>
