<?xml version="1.0" encoding="UTF-8" standalone="no"?>
<!DOCTYPE svg PUBLIC "-//W3C//DTD SVG 1.1//EN"
 "http://www.w3.org/Graphics/SVG/1.1/DTD/svg11.dtd">
<!-- Generated by graphviz version 14.1.2 (20260126.1125)
 -->
<!-- Title: G Pages: 1 -->
<svg width="941pt" height="555pt"
 viewBox="0.00 0.00 941.00 555.00" xmlns="http://www.w3.org/2000/svg" xmlns:xlink="http://www.w3.org/1999/xlink">
<g id="graph0" class="graph" transform="scale(1 1) rotate(0) translate(4 551)">
<title>G</title>
<polygon fill="white" stroke="none" points="-4,4 -4,-551 936.5,-551 936.5,4 -4,4"/>
<text xml:space="preserve" text-anchor="start" x="8" y="-528.75" font-family="Times,serif" font-size="15.00">Causal structure — ICE (PC + LLM priors, reoriented; solid: stability ≥ 0.7, dashed: ≥ 0.5; line weight ∝ record support)</text>
<!-- tier0 -->
<g id="node1" class="node">
<title>tier0</title>
<text xml:space="preserve" text-anchor="middle" x="246.25" y="-499.88" font-family="Times,serif" font-style="italic" font-size="10.00" fill="#808080">Organizational</text>
</g>
<!-- tier1 -->
<g id="node3" class="node">
<title>tier1</title>
<text xml:space="preserve" text-anchor="middle" x="246.25" y="-402.88" font-family="Times,serif" font-style="italic" font-size="10.00" fill="#808080">Latent / ambient conditions</text>
</g>
<!-- tier0&#45;&gt;tier1 -->
<!-- MAINTENANCE_INADEQUATE -->
<g id="node2" class="node">
<title>MAINTENANCE_INADEQUATE</title>
<path fill="#f7f7f7" stroke="#333333" stroke-width="0.8" d="M487.82,-521C487.82,-521 430.68,-521 430.68,-521 424.68,-521 418.68,-515 418.68,-509 418.68,-509 418.68,-497 418.68,-497 418.68,-491 424.68,-485 430.68,-485 430.68,-485 487.82,-485 487.82,-485 493.82,-485 499.82,-491 499.82,-497 499.82,-497 499.82,-509 499.82,-509 499.82,-515 493.82,-521 487.82,-521"/>
<text xml:space="preserve" text-anchor="start" x="425.88" y="-508.5" font-family="Times,serif" font-size="10.00">Maintenance</text>
<text xml:space="preserve" text-anchor="start" x="430.38" y="-498.5" font-family="Times,serif" font-size="10.00">inadequate</text>
<text xml:space="preserve" text-anchor="start" x="445.75" y="-490.4" font-family="Times,serif" font-size="8.00" fill="#808080">n = 24</text>
</g>
<!-- ENGINE_FAILURE -->
<g id="node14" class="node">
<title>ENGINE_FAILURE</title>
<path fill="#f7f7f7" stroke="#333333" stroke-width="0.8" d="M542.83,-133C542.83,-133 479.68,-133 479.68,-133 473.68,-133 467.68,-127 467.68,-121 467.68,-121 467.68,-109 467.68,-109 467.68,-103 473.68,-97 479.68,-97 479.68,-97 542.83,-97 542.83,-97 548.83,-97 554.83,-103 554.83,-109 554.83,-109 554.83,-121 554.83,-121 554.83,-127 548.83,-133 542.83,-133"/>
<text xml:space="preserve" text-anchor="start" x="474.88" y="-115.5" font-family="Times,serif" font-size="10.00">Engine failure</text>
<text xml:space="preserve" text-anchor="start" x="497.75" y="-107.4" font-family="Times,serif" font-size="8.00" fill="#808080">n = 52</text>
</g>
<!-- MAINTENANCE_INADEQUATE&#45;&gt;ENGINE_FAILURE -->
<g id="edge11" class="edge">
<title>MAINTENANCE_INADEQUATE&#45;&gt;ENGINE_FAILURE</title>
<g id="a_edge11"><a xlink:title="MAINTENANCE_INADEQUATE &#45;&gt; ENGINE_FAILURE: support 11, stability 0.77">
<path fill="none" stroke="#4d4d4d" stroke-width="0.84" d="M458.58,-484.7C457.13,-437.45 455.63,-302.45 480.25,-194 484.61,-174.81 493,-154.15 499.95,-138.92"/>
<polygon fill="#4d4d4d" stroke="#4d4d4d" stroke-width="0.84" points="501.52,-140.11 502.09,-134.31 498.03,-138.49 501.52,-140.11"/>
</a>
</g>
</g>
<!-- tier2 -->
<g id="node6" class="node">
<title>tier2</title>
<text xml:space="preserve" text-anchor="middle" x="246.25" y="-305.88" font-family="Times,serif" font-style="italic" font-size="10.00" fill="#808080">Environmental encounters</text>
</g>
<!-- tier1&#45;&gt;tier2 -->
<!-- ADVERSE_WIND_CONDITION -->
<g id="node4" class="node">
<title>ADVERSE_WIND_CONDITION</title>
<path fill="#f7f7f7" stroke="#333333" stroke-width="0.8" d="M415.32,-424C415.32,-424 355.18,-424 355.18,-424 349.18,-424 343.18,-418 343.18,-412 343.18,-412 343.18,-400 343.18,-400 343.18,-394 349.18,-388 355.18,-388 355.18,-388 415.32,-388 415.32,-388 421.32,-388 427.32,-394 427.32,-400 427.32,-400 427.32,-412 427.32,-412 427.32,-418 421.32,-424 415.32,-424"/>
<text xml:space="preserve" text-anchor="start" x="350.38" y="-411.5" font-family="Times,serif" font-size="10.00">Adverse wind</text>
<text xml:space="preserve" text-anchor="start" x="361.62" y="-401.5" font-family="Times,serif" font-size="10.00">condition</text>
<text xml:space="preserve" text-anchor="start" x="369.12" y="-393.4" font-family="Times,serif" font-size="8.00" fill="#808080">n = 354</text>
</g>
<!-- PROCEDURE_NOT_FOLLOWED -->
<g id="node11" class="node">
<title>PROCEDURE_NOT_FOLLOWED</title>
<path fill="#f7f7f7" stroke="#333333" stroke-width="0.8" d="M416.45,-230C416.45,-230 354.05,-230 354.05,-230 348.05,-230 342.05,-224 342.05,-218 342.05,-218 342.05,-206 342.05,-206 342.05,-200 348.05,-194 354.05,-194 354.05,-194 416.45,-194 416.45,-194 422.45,-194 428.45,-200 428.45,-206 428.45,-206 428.45,-218 428.45,-218 428.45,-224 422.45,-230 416.45,-230"/>
<text xml:space="preserve" text-anchor="start" x="349.25" y="-217.5" font-family="Times,serif" font-size="10.00">Procedure not</text>
<text xml:space="preserve" text-anchor="start" x="363.88" y="-207.5" font-family="Times,serif" font-size="10.00">followed</text>
<text xml:space="preserve" text-anchor="start" x="369.12" y="-199.4" font-family="Times,serif" font-size="8.00" fill="#808080">n = 338</text>
</g>
<!-- ADVERSE_WIND_CONDITION&#45;&gt;PROCEDURE_NOT_FOLLOWED -->
<g id="edge12" class="edge">
<title>ADVERSE_WIND_CONDITION&#45;&gt;PROCEDURE_NOT_FOLLOWED</title>
<g id="a_edge12"><a xlink:title="ADVERSE_WIND_CONDITION &#45;&gt; PROCEDURE_NOT_FOLLOWED: support 58, stability 0.57">
<path fill="none" stroke="#4d4d4d" stroke-width="1.28" stroke-dasharray="5,2" d="M385.25,-387.62C385.25,-353.35 385.25,-276.97 385.25,-237.56"/>
<polygon fill="#4d4d4d" stroke="#4d4d4d" stroke-width="1.28" points="387.18,-237.64 385.25,-232.14 383.33,-237.64 387.18,-237.64"/>
</a>
</g>
</g>
<!-- DARK_NIGHT_OR_LOW_LIGHT -->
<g id="node5" class="node">
<title>DARK_NIGHT_OR_LOW_LIGHT</title>
<path fill="#f7f7f7" stroke="#333333" stroke-width="0.8" d="M651.83,-424C651.83,-424 600.67,-424 600.67,-424 594.67,-424 588.67,-418 588.67,-412 588.67,-412 588.67,-400 588.67,-400 588.67,-394 594.67,-388 600.67,-388 600.67,-388 651.83,-388 651.83,-388 657.83,-388 663.83,-394 663.83,-400 663.83,-400 663.83,-412 663.83,-412 663.83,-418 657.83,-424 651.83,-424"/>
<text xml:space="preserve" text-anchor="start" x="595.88" y="-411.5" font-family="Times,serif" font-size="10.00">Dark night /</text>
<text xml:space="preserve" text-anchor="start" x="604.5" y="-401.5" font-family="Times,serif" font-size="10.00">low light</text>
<text xml:space="preserve" text-anchor="start" x="612.75" y="-393.4" font-family="Times,serif" font-size="8.00" fill="#808080">n = 40</text>
</g>
<!-- PERCEPTION_FAILURE -->
<g id="node12" class="node">
<title>PERCEPTION_FAILURE</title>
<path fill="#f7f7f7" stroke="#333333" stroke-width="0.8" d="M648.45,-230C648.45,-230 604.05,-230 604.05,-230 598.05,-230 592.05,-224 592.05,-218 592.05,-218 592.05,-206 592.05,-206 592.05,-200 598.05,-194 604.05,-194 604.05,-194 648.45,-194 648.45,-194 654.45,-194 660.45,-200 660.45,-206 660.45,-206 660.45,-218 660.45,-218 660.45,-224 654.45,-230 648.45,-230"/>
<text xml:space="preserve" text-anchor="start" x="599.25" y="-217.5" font-family="Times,serif" font-size="10.00">Perception</text>
<text xml:space="preserve" text-anchor="start" x="609.75" y="-207.5" font-family="Times,serif" font-size="10.00">failure</text>
<text xml:space="preserve" text-anchor="start" x="610.12" y="-199.4" font-family="Times,serif" font-size="8.00" fill="#808080">n = 145</text>
</g>
<!-- DARK_NIGHT_OR_LOW_LIGHT&#45;&gt;PERCEPTION_FAILURE -->
<g id="edge13" class="edge">
<title>DARK_NIGHT_OR_LOW_LIGHT&#45;&gt;PERCEPTION_FAILURE</title>
<g id="a_edge13"><a xlink:title="DARK_NIGHT_OR_LOW_LIGHT &#45;&gt; PERCEPTION_FAILURE: support 17, stability 0.97">
<path fill="none" stroke="#4d4d4d" stroke-width="0.92" d="M626.25,-387.62C626.25,-353.21 626.25,-276.33 626.25,-237.07"/>
<polygon fill="#4d4d4d" stroke="#4d4d4d" stroke-width="0.92" points="628.18,-237.09 626.25,-231.59 624.33,-237.09 628.18,-237.09"/>
</a>
</g>
</g>
<!-- tier3 -->
<g id="node9" class="node">
<title>tier3</title>
<text xml:space="preserve" text-anchor="middle" x="246.25" y="-208.88" font-family="Times,serif" font-style="italic" font-size="10.00" fill="#808080">Crew &amp; external actions</text>
</g>
<!-- tier2&#45;&gt;tier3 -->
<!-- WIND_SHEAR_OR_GUST -->
<g id="node7" class="node">
<title>WIND_SHEAR_OR_GUST</title>
<path fill="#f7f7f7" stroke="#333333" stroke-width="0.8" d="M564.08,-327C564.08,-327 502.43,-327 502.43,-327 496.43,-327 490.43,-321 490.43,-315 490.43,-315 490.43,-303 490.43,-303 490.43,-297 496.43,-291 502.43,-291 502.43,-291 564.08,-291 564.08,-291 570.08,-291 576.08,-297 576.08,-303 576.08,-303 576.08,-315 576.08,-315 576.08,-321 570.08,-327 564.08,-327"/>
<text xml:space="preserve" text-anchor="start" x="497.62" y="-314.5" font-family="Times,serif" font-size="10.00">Wind shear or</text>
<text xml:space="preserve" text-anchor="start" x="522" y="-304.5" font-family="Times,serif" font-size="10.00">gust</text>
<text xml:space="preserve" text-anchor="start" x="519.75" y="-296.4" font-family="Times,serif" font-size="8.00" fill="#808080">n = 76</text>
</g>
<!-- CONTROL_INPUT_IMPROPER -->
<g id="node10" class="node">
<title>CONTROL_INPUT_IMPROPER</title>
<path fill="#f7f7f7" stroke="#333333" stroke-width="0.8" d="M560.2,-230C560.2,-230 502.3,-230 502.3,-230 496.3,-230 490.3,-224 490.3,-218 490.3,-218 490.3,-206 490.3,-206 490.3,-200 496.3,-194 502.3,-194 502.3,-194 560.2,-194 560.2,-194 566.2,-194 572.2,-200 572.2,-206 572.2,-206 572.2,-218 572.2,-218 572.2,-224 566.2,-230 560.2,-230"/>
<text xml:space="preserve" text-anchor="start" x="497.5" y="-217.5" font-family="Times,serif" font-size="10.00">Control input</text>
<text xml:space="preserve" text-anchor="start" x="507.62" y="-207.5" font-family="Times,serif" font-size="10.00">improper</text>
<text xml:space="preserve" text-anchor="start" x="511.38" y="-199.4" font-family="Times,serif" font-size="8.00" fill="#808080">n = 1,400</text>
</g>
<!-- WIND_SHEAR_OR_GUST&#45;&gt;CONTROL_INPUT_IMPROPER -->
<g id="edge9" class="edge">
<title>WIND_SHEAR_OR_GUST&#45;&gt;CONTROL_INPUT_IMPROPER</title>
<g id="a_edge9"><a xlink:title="WIND_SHEAR_OR_GUST &#45;&gt; CONTROL_INPUT_IMPROPER: support 66, stability 0.50">
<path fill="none" stroke="#4d4d4d" stroke-width="1.33" stroke-dasharray="5,2" d="M532.89,-291.02C532.58,-276.11 532.12,-254.26 531.77,-237.47"/>
<polygon fill="#4d4d4d" stroke="#4d4d4d" stroke-width="1.33" points="533.69,-237.63 531.65,-232.17 529.84,-237.71 533.69,-237.63"/>
</a>
</g>
</g>
<!-- RUNWAY_CONDITION_HAZARD -->
<g id="node8" class="node">
<title>RUNWAY_CONDITION_HAZARD</title>
<path fill="#f7f7f7" stroke="#333333" stroke-width="0.8" d="M751.2,-327C751.2,-327 669.3,-327 669.3,-327 663.3,-327 657.3,-321 657.3,-315 657.3,-315 657.3,-303 657.3,-303 657.3,-297 663.3,-291 669.3,-291 669.3,-291 751.2,-291 751.2,-291 757.2,-291 763.2,-297 763.2,-303 763.2,-303 763.2,-315 763.2,-315 763.2,-321 757.2,-327 751.2,-327"/>
<text xml:space="preserve" text-anchor="start" x="664.5" y="-314.5" font-family="Times,serif" font-size="10.00">Runway condition</text>
<text xml:space="preserve" text-anchor="start" x="692.62" y="-304.5" font-family="Times,serif" font-size="10.00">hazard</text>
<text xml:space="preserve" text-anchor="start" x="696.75" y="-296.4" font-family="Times,serif" font-size="8.00" fill="#808080">n = 69</text>
</g>
<!-- LOSS_OF_CONTROL_GROUND -->
<g id="node17" class="node">
<title>LOSS_OF_CONTROL_GROUND</title>
<path fill="#f7f7f7" stroke="#333333" stroke-width="0.8" d="M742.58,-36C742.58,-36 677.92,-36 677.92,-36 671.92,-36 665.92,-30 665.92,-24 665.92,-24 665.92,-12 665.92,-12 665.92,-6 671.92,0 677.92,0 677.92,0 742.58,0 742.58,0 748.58,0 754.58,-6 754.58,-12 754.58,-12 754.58,-24 754.58,-24 754.58,-30 748.58,-36 742.58,-36"/>
<text xml:space="preserve" text-anchor="start" x="673.12" y="-23.5" font-family="Times,serif" font-size="10.00">Loss of control</text>
<text xml:space="preserve" text-anchor="start" x="683.62" y="-13.5" font-family="Times,serif" font-size="10.00">on ground</text>
<text xml:space="preserve" text-anchor="start" x="694.12" y="-5.4" font-family="Times,serif" font-size="8.00" fill="#808080">n = 285</text>
</g>
<!-- RUNWAY_CONDITION_HAZARD&#45;&gt;LOSS_OF_CONTROL_GROUND -->
<g id="edge10" class="edge">
<title>RUNWAY_CONDITION_HAZARD&#45;&gt;LOSS_OF_CONTROL_GROUND</title>
<g id="a_edge10"><a xlink:title="RUNWAY_CONDITION_HAZARD &#45;&gt; LOSS_OF_CONTROL_GROUND: support 27, stability 0.63">
<path fill="none" stroke="#4d4d4d" stroke-width="1.03" stroke-dasharray="5,2" d="M710.25,-290.79C710.25,-241.49 710.25,-99.7 710.25,-42.93"/>
<polygon fill="#4d4d4d" stroke="#4d4d4d" stroke-width="1.03" points="712.18,-43.18 710.25,-37.68 708.33,-43.18 712.18,-43.18"/>
</a>
</g>
</g>
<!-- tier4 -->
<g id="node13" class="node">
<title>tier4</title>
<text xml:space="preserve" text-anchor="middle" x="246.25" y="-111.88" font-family="Times,serif" font-style="italic" font-size="10.00" fill="#808080">Aircraft system failures</text>
</g>
<!-- tier3&#45;&gt;tier4 -->
<!-- PROCEDURE_NOT_FOLLOWED&#45;&gt;CONTROL_INPUT_IMPROPER -->
<g id="edge6" class="edge">
<title>PROCEDURE_NOT_FOLLOWED&#45;&gt;CONTROL_INPUT_IMPROPER</title>
<g id="a_edge6"><a xlink:title="PROCEDURE_NOT_FOLLOWED &#45;&gt; CONTROL_INPUT_IMPROPER: support 307, stability 0.63">
<path fill="none" stroke="#4d4d4d" stroke-width="2.3" stroke-dasharray="5,2" d="M428.59,-212C446.17,-212 463.74,-212 481.32,-212"/>
<polygon fill="#4d4d4d" stroke="#4d4d4d" stroke-width="2.3" points="480.97,-213.93 486.47,-212 480.97,-210.08 480.97,-213.93"/>
</a>
</g>
</g>
<!-- tier5 -->
<g id="node16" class="node">
<title>tier5</title>
<text xml:space="preserve" text-anchor="middle" x="246.25" y="-14.88" font-family="Times,serif" font-style="italic" font-size="10.00" fill="#808080">Aerodynamic states</text>
</g>
<!-- tier4&#45;&gt;tier5 -->
<!-- ENGINE_FAILURE&#45;&gt;CONTROL_INPUT_IMPROPER -->
<g id="edge7" class="edge">
<title>ENGINE_FAILURE&#45;&gt;CONTROL_INPUT_IMPROPER</title>
<g id="a_edge7"><a xlink:title="ENGINE_FAILURE &#45;&gt; CONTROL_INPUT_IMPROPER: support 35, stability 0.90">
<path fill="none" stroke="#4d4d4d" stroke-width="1.11" d="M514.86,-133.16C518.04,-148.25 522.7,-170.37 526.23,-187.17"/>
<polygon fill="#4d4d4d" stroke="#4d4d4d" stroke-width="1.11" points="524.31,-187.39 527.33,-192.37 528.08,-186.59 524.31,-187.39"/>
</a>
</g>
</g>
<!-- LANDING_GEAR_ANOMALY -->
<g id="node15" class="node">
<title>LANDING_GEAR_ANOMALY</title>
<path fill="#f7f7f7" stroke="#333333" stroke-width="0.8" d="M414.95,-133C414.95,-133 355.55,-133 355.55,-133 349.55,-133 343.55,-127 343.55,-121 343.55,-121 343.55,-109 343.55,-109 343.55,-103 349.55,-97 355.55,-97 355.55,-97 414.95,-97 414.95,-97 420.95,-97 426.95,-103 426.95,-109 426.95,-109 426.95,-121 426.95,-121 426.95,-127 420.95,-133 414.95,-133"/>
<text xml:space="preserve" text-anchor="start" x="350.75" y="-120.5" font-family="Times,serif" font-size="10.00">Landing gear</text>
<text xml:space="preserve" text-anchor="start" x="363.5" y="-110.5" font-family="Times,serif" font-size="10.00">anomaly</text>
<text xml:space="preserve" text-anchor="start" x="369.12" y="-102.4" font-family="Times,serif" font-size="8.00" fill="#808080">n = 197</text>
</g>
<!-- LANDING_GEAR_ANOMALY&#45;&gt;PROCEDURE_NOT_FOLLOWED -->
<g id="edge8" class="edge">
<title>LANDING_GEAR_ANOMALY&#45;&gt;PROCEDURE_NOT_FOLLOWED</title>
<g id="a_edge8"><a xlink:title="LANDING_GEAR_ANOMALY &#45;&gt; PROCEDURE_NOT_FOLLOWED: support 26, stability 0.60">
<path fill="none" stroke="#4d4d4d" stroke-width="1.02" stroke-dasharray="5,2" d="M385.25,-133.16C385.25,-148.25 385.25,-170.37 385.25,-187.17"/>
<polygon fill="#4d4d4d" stroke="#4d4d4d" stroke-width="1.02" points="383.33,-186.97 385.25,-192.47 387.18,-186.97 383.33,-186.97"/>
</a>
</g>
</g>
</g>
</svg>
