<?xml version="1.0" encoding="UTF-8" standalone="no"?>
<!DOCTYPE svg PUBLIC "-//W3C//DTD SVG 1.1//EN"
 "http://www.w3.org/Graphics/SVG/1.1/DTD/svg11.dtd">
<!-- Generated by graphviz version 14.1.2 (20260126.1125)
 -->
<!-- Title: G Pages: 1 -->
<svg width="636pt" height="471pt"
 viewBox="0.00 0.00 636.00 471.00" xmlns="http://www.w3.org/2000/svg" xmlns:xlink="http://www.w3.org/1999/xlink">
<g id="graph0" class="graph" transform="scale(1 1) rotate(0) translate(4 467.2)">
<title>G</title>
<polygon fill="white" stroke="none" points="-4,4 -4,-467.2 631.59,-467.2 631.59,4 -4,4"/>
<!-- tier0 -->
<g id="node1" class="node">
<title>tier0</title>
<text xml:space="preserve" text-anchor="middle" x="64.55" y="-441" font-family="Liberation Serif Italic" font-size="10.00" fill="#78909c">Organizational</text>
</g>
<!-- tier1 -->
<g id="node3" class="node">
<title>tier1</title>
<text xml:space="preserve" text-anchor="middle" x="64.55" y="-334.37" font-family="Liberation Serif Italic" font-size="10.00" fill="#78909c">Latent / ambient conditions</text>
</g>
<!-- tier0&#45;&gt;tier1 -->
<!-- MAINTENANCE_INADEQUATE -->
<g id="node2" class="node">
<title>MAINTENANCE_INADEQUATE</title>
<path fill="#cce3f0" stroke="#0072b2" stroke-width="0.9" d="M402.09,-463.2C402.09,-463.2 357,-463.2 357,-463.2 351,-463.2 345,-457.2 345,-451.2 345,-451.2 345,-438.56 345,-438.56 345,-432.56 351,-426.56 357,-426.56 357,-426.56 402.09,-426.56 402.09,-426.56 408.09,-426.56 414.09,-432.56 414.09,-438.56 414.09,-438.56 414.09,-451.2 414.09,-451.2 414.09,-457.2 408.09,-463.2 402.09,-463.2"/>
<text xml:space="preserve" text-anchor="start" x="352.92" y="-450.38" font-family="Liberation Serif" font-size="10.00" fill="#263238">Maintenance</text>
<text xml:space="preserve" text-anchor="start" x="357.05" y="-440.38" font-family="Liberation Serif" font-size="10.00" fill="#263238">inadequate</text>
<text xml:space="preserve" text-anchor="start" x="367.55" y="-432.28" font-family="Liberation Serif" font-size="8.00" fill="#546e7a">n = 721</text>
</g>
<!-- LATENT_MECHANICAL_DEFECT -->
<g id="node4" class="node">
<title>LATENT_MECHANICAL_DEFECT</title>
<path fill="#cce3f0" stroke="#0072b2" stroke-width="0.9" d="M340.72,-361.56C340.72,-361.56 302.38,-361.56 302.38,-361.56 296.38,-361.56 290.38,-355.56 290.38,-349.56 290.38,-349.56 290.38,-326.92 290.38,-326.92 290.38,-320.92 296.38,-314.92 302.38,-314.92 302.38,-314.92 340.72,-314.92 340.72,-314.92 346.72,-314.92 352.72,-320.92 352.72,-326.92 352.72,-326.92 352.72,-349.56 352.72,-349.56 352.72,-355.56 346.72,-361.56 340.72,-361.56"/>
<text xml:space="preserve" text-anchor="start" x="308.42" y="-348.74" font-family="Liberation Serif" font-size="10.00" fill="#263238">Latent</text>
<text xml:space="preserve" text-anchor="start" x="298.3" y="-338.74" font-family="Liberation Serif" font-size="10.00" fill="#263238">mechanical</text>
<text xml:space="preserve" text-anchor="start" x="309.17" y="-328.74" font-family="Liberation Serif" font-size="10.00" fill="#263238">defect</text>
<text xml:space="preserve" text-anchor="start" x="309.55" y="-320.64" font-family="Liberation Serif" font-size="8.00" fill="#546e7a">n = 846</text>
</g>
<!-- MAINTENANCE_INADEQUATE&#45;&gt;LATENT_MECHANICAL_DEFECT -->
<g id="edge5" class="edge">
<title>MAINTENANCE_INADEQUATE&#45;&gt;LATENT_MECHANICAL_DEFECT</title>
<g id="a_edge5"><a xlink:title="MAINTENANCE_INADEQUATE &#45;&gt; LATENT_MECHANICAL_DEFECT: support 428, stability 0.37">
<path fill="none" stroke="#546e7a" stroke-width="2.3" d="M369.71,-426.13C361.11,-410.62 348.45,-387.77 338.26,-369.4"/>
<polygon fill="#546e7a" stroke="#546e7a" stroke-width="2.3" points="340.11,-368.75 335.76,-364.88 336.74,-370.62 340.11,-368.75"/>
</a>
</g>
</g>
<!-- CONTROL_INPUT_IMPROPER -->
<g id="node7" class="node">
<title>CONTROL_INPUT_IMPROPER</title>
<path fill="#cce3f0" stroke="#0072b2" stroke-width="0.9" d="M511.22,-249.92C511.22,-249.92 463.88,-249.92 463.88,-249.92 457.88,-249.92 451.88,-243.92 451.88,-237.92 451.88,-237.92 451.88,-225.28 451.88,-225.28 451.88,-219.28 457.88,-213.28 463.88,-213.28 463.88,-213.28 511.22,-213.28 511.22,-213.28 517.22,-213.28 523.22,-219.28 523.22,-225.28 523.22,-225.28 523.22,-237.92 523.22,-237.92 523.22,-243.92 517.22,-249.92 511.22,-249.92"/>
<text xml:space="preserve" text-anchor="start" x="459.8" y="-237.1" font-family="Liberation Serif" font-size="10.00" fill="#263238">Control input</text>
<text xml:space="preserve" text-anchor="start" x="469.17" y="-227.1" font-family="Liberation Serif" font-size="10.00" fill="#263238">improper</text>
<text xml:space="preserve" text-anchor="start" x="475.55" y="-219" font-family="Liberation Serif" font-size="8.00" fill="#546e7a">n = 400</text>
</g>
<!-- MAINTENANCE_INADEQUATE&#45;&gt;CONTROL_INPUT_IMPROPER -->
<g id="edge12" class="edge">
<title>MAINTENANCE_INADEQUATE&#45;&gt;CONTROL_INPUT_IMPROPER</title>
<g id="a_edge12"><a xlink:title="MAINTENANCE_INADEQUATE &#45;&gt; CONTROL_INPUT_IMPROPER: support 123, stability 0.40">
<path fill="none" stroke="#546e7a" stroke-width="1.46" d="M388.57,-426.23C407.82,-388.56 452.99,-300.21 475.02,-257.11"/>
<polygon fill="#546e7a" stroke="#546e7a" stroke-width="1.46" points="476.68,-258.09 477.47,-252.32 473.25,-256.34 476.68,-258.09"/>
</a>
</g>
</g>
<!-- tier3 -->
<g id="node5" class="node">
<title>tier3</title>
<text xml:space="preserve" text-anchor="middle" x="64.55" y="-227.73" font-family="Liberation Serif Italic" font-size="10.00" fill="#78909c">Crew &amp; external actions</text>
</g>
<!-- tier1&#45;&gt;tier3 -->
<!-- DECISION_INAPPROPRIATE -->
<g id="node6" class="node">
<title>DECISION_INAPPROPRIATE</title>
<path fill="#cce3f0" stroke="#0072b2" stroke-width="0.9" d="M274.84,-249.92C274.84,-249.92 228.25,-249.92 228.25,-249.92 222.25,-249.92 216.25,-243.92 216.25,-237.92 216.25,-237.92 216.25,-225.28 216.25,-225.28 216.25,-219.28 222.25,-213.28 228.25,-213.28 228.25,-213.28 274.84,-213.28 274.84,-213.28 280.84,-213.28 286.84,-219.28 286.84,-225.28 286.84,-225.28 286.84,-237.92 286.84,-237.92 286.84,-243.92 280.84,-249.92 274.84,-249.92"/>
<text xml:space="preserve" text-anchor="start" x="233.17" y="-237.1" font-family="Liberation Serif" font-size="10.00" fill="#263238">Decision</text>
<text xml:space="preserve" text-anchor="start" x="224.17" y="-227.1" font-family="Liberation Serif" font-size="10.00" fill="#263238">inappropriate</text>
<text xml:space="preserve" text-anchor="start" x="239.55" y="-219" font-family="Liberation Serif" font-size="8.00" fill="#546e7a">n = 562</text>
</g>
<!-- LATENT_MECHANICAL_DEFECT&#45;&gt;DECISION_INAPPROPRIATE -->
<g id="edge7" class="edge">
<title>LATENT_MECHANICAL_DEFECT&#45;&gt;DECISION_INAPPROPRIATE</title>
<g id="a_edge7"><a xlink:title="LATENT_MECHANICAL_DEFECT &#45;&gt; DECISION_INAPPROPRIATE: support 204, stability 0.67">
<path fill="none" stroke="#546e7a" stroke-width="1.74" d="M306.36,-314.53C294.93,-297.45 279.29,-274.08 267.65,-256.67"/>
<polygon fill="#546e7a" stroke="#546e7a" stroke-width="1.74" points="269.36,-255.77 264.7,-252.27 266.16,-257.91 269.36,-255.77"/>
</a>
</g>
</g>
<!-- OTHER_SYSTEM_FAILURE -->
<g id="node14" class="node">
<title>OTHER_SYSTEM_FAILURE</title>
<path fill="#cce3f0" stroke="#0072b2" stroke-width="0.9" d="M344.09,-143.28C344.09,-143.28 299,-143.28 299,-143.28 293,-143.28 287,-137.28 287,-131.28 287,-131.28 287,-118.64 287,-118.64 287,-112.64 293,-106.64 299,-106.64 299,-106.64 344.09,-106.64 344.09,-106.64 350.09,-106.64 356.09,-112.64 356.09,-118.64 356.09,-118.64 356.09,-131.28 356.09,-131.28 356.09,-137.28 350.09,-143.28 344.09,-143.28"/>
<text xml:space="preserve" text-anchor="start" x="294.92" y="-130.46" font-family="Liberation Serif" font-size="10.00" fill="#263238">Other system</text>
<text xml:space="preserve" text-anchor="start" x="308.42" y="-120.46" font-family="Liberation Serif" font-size="10.00" fill="#263238">failure</text>
<text xml:space="preserve" text-anchor="start" x="309.55" y="-112.36" font-family="Liberation Serif" font-size="8.00" fill="#546e7a">n = 573</text>
</g>
<!-- LATENT_MECHANICAL_DEFECT&#45;&gt;OTHER_SYSTEM_FAILURE -->
<g id="edge10" class="edge">
<title>LATENT_MECHANICAL_DEFECT&#45;&gt;OTHER_SYSTEM_FAILURE</title>
<g id="a_edge10"><a xlink:title="LATENT_MECHANICAL_DEFECT &#45;&gt; OTHER_SYSTEM_FAILURE: support 161, stability 0.97">
<path fill="none" stroke="#546e7a" stroke-width="1.6" d="M321.55,-314.63C321.55,-274.91 321.55,-192.88 321.55,-151.31"/>
<polygon fill="#546e7a" stroke="#546e7a" stroke-width="1.6" points="323.47,-151.48 321.55,-145.98 319.62,-151.48 323.47,-151.48"/>
</a>
</g>
</g>
<!-- tier4 -->
<g id="node9" class="node">
<title>tier4</title>
<text xml:space="preserve" text-anchor="middle" x="64.55" y="-121.09" font-family="Liberation Serif Italic" font-size="10.00" fill="#78909c">Aircraft system failures</text>
</g>
<!-- tier3&#45;&gt;tier4 -->
<!-- PROCEDURE_NOT_FOLLOWED -->
<g id="node8" class="node">
<title>PROCEDURE_NOT_FOLLOWED</title>
<path fill="#cce3f0" stroke="#0072b2" stroke-width="0.9" d="M416.59,-249.92C416.59,-249.92 368.5,-249.92 368.5,-249.92 362.5,-249.92 356.5,-243.92 356.5,-237.92 356.5,-237.92 356.5,-225.28 356.5,-225.28 356.5,-219.28 362.5,-213.28 368.5,-213.28 368.5,-213.28 416.59,-213.28 416.59,-213.28 422.59,-213.28 428.59,-219.28 428.59,-225.28 428.59,-225.28 428.59,-237.92 428.59,-237.92 428.59,-243.92 422.59,-249.92 416.59,-249.92"/>
<text xml:space="preserve" text-anchor="start" x="364.42" y="-237.1" font-family="Liberation Serif" font-size="10.00" fill="#263238">Procedure not</text>
<text xml:space="preserve" text-anchor="start" x="374.17" y="-227.1" font-family="Liberation Serif" font-size="10.00" fill="#263238">followed</text>
<text xml:space="preserve" text-anchor="start" x="380.55" y="-219" font-family="Liberation Serif" font-size="8.00" fill="#546e7a">n = 534</text>
</g>
<!-- PROCEDURE_NOT_FOLLOWED&#45;&gt;CONTROL_INPUT_IMPROPER -->
<g id="edge15" class="edge">
<title>PROCEDURE_NOT_FOLLOWED&#45;&gt;CONTROL_INPUT_IMPROPER</title>
<g id="a_edge15"><a xlink:title="PROCEDURE_NOT_FOLLOWED &#45;&gt; CONTROL_INPUT_IMPROPER: support 82, stability 0.80">
<path fill="none" stroke="#546e7a" stroke-width="1.29" d="M428.91,-231.6C434.16,-231.6 439.41,-231.6 444.66,-231.6"/>
<polygon fill="#546e7a" stroke="#546e7a" stroke-width="1.29" points="444.36,-233.53 449.86,-231.6 444.36,-229.68 444.36,-233.53"/>
</a>
</g>
</g>
<!-- AIRFRAME_STRUCTURAL_FAILURE -->
<g id="node11" class="node">
<title>AIRFRAME_STRUCTURAL_FAILURE</title>
<path fill="#cce3f0" stroke="#0072b2" stroke-width="0.9" d="M615.59,-148.28C615.59,-148.28 585.5,-148.28 585.5,-148.28 579.5,-148.28 573.5,-142.28 573.5,-136.28 573.5,-136.28 573.5,-113.64 573.5,-113.64 573.5,-107.64 579.5,-101.64 585.5,-101.64 585.5,-101.64 615.59,-101.64 615.59,-101.64 621.59,-101.64 627.59,-107.64 627.59,-113.64 627.59,-113.64 627.59,-136.28 627.59,-136.28 627.59,-142.28 621.59,-148.28 615.59,-148.28"/>
<text xml:space="preserve" text-anchor="start" x="582.55" y="-135.46" font-family="Liberation Serif" font-size="10.00" fill="#263238">Airframe</text>
<text xml:space="preserve" text-anchor="start" x="581.42" y="-125.46" font-family="Liberation Serif" font-size="10.00" fill="#263238">structural</text>
<text xml:space="preserve" text-anchor="start" x="587.42" y="-115.46" font-family="Liberation Serif" font-size="10.00" fill="#263238">failure</text>
<text xml:space="preserve" text-anchor="start" x="588.55" y="-107.36" font-family="Liberation Serif" font-size="8.00" fill="#546e7a">n = 454</text>
</g>
<!-- PROCEDURE_NOT_FOLLOWED&#45;&gt;AIRFRAME_STRUCTURAL_FAILURE -->
<g id="edge16" class="edge">
<title>PROCEDURE_NOT_FOLLOWED&#45;&gt;AIRFRAME_STRUCTURAL_FAILURE</title>
<g id="a_edge16"><a xlink:title="PROCEDURE_NOT_FOLLOWED &#45;&gt; AIRFRAME_STRUCTURAL_FAILURE: support 72, stability 0.07">
<path fill="none" stroke="#546e7a" stroke-width="1.24" d="M428.83,-213.78C463.29,-197.61 516.4,-172.16 561.55,-148.28 563.36,-147.32 565.2,-146.33 567.07,-145.31"/>
<polygon fill="#546e7a" stroke="#546e7a" stroke-width="1.24" points="567.88,-147.06 571.76,-142.71 566.01,-143.69 567.88,-147.06"/>
</a>
</g>
</g>
<!-- tier5 -->
<g id="node15" class="node">
<title>tier5</title>
<text xml:space="preserve" text-anchor="middle" x="64.55" y="-14.45" font-family="Liberation Serif Italic" font-size="10.00" fill="#78909c">Aerodynamic states</text>
</g>
<!-- tier4&#45;&gt;tier5 -->
<!-- ENGINE_FAILURE -->
<g id="node10" class="node">
<title>ENGINE_FAILURE</title>
<path fill="#cce3f0" stroke="#0072b2" stroke-width="0.9" d="M204.34,-142.96C204.34,-142.96 154.75,-142.96 154.75,-142.96 148.75,-142.96 142.75,-136.96 142.75,-130.96 142.75,-130.96 142.75,-118.96 142.75,-118.96 142.75,-112.96 148.75,-106.96 154.75,-106.96 154.75,-106.96 204.34,-106.96 204.34,-106.96 210.34,-106.96 216.34,-112.96 216.34,-118.96 216.34,-118.96 216.34,-130.96 216.34,-130.96 216.34,-136.96 210.34,-142.96 204.34,-142.96"/>
<text xml:space="preserve" text-anchor="start" x="150.67" y="-125.46" font-family="Liberation Serif" font-size="10.00" fill="#263238">Engine failure</text>
<text xml:space="preserve" text-anchor="start" x="167.55" y="-117.36" font-family="Liberation Serif" font-size="8.00" fill="#546e7a">n = 252</text>
</g>
<!-- ENGINE_FAILURE&#45;&gt;DECISION_INAPPROPRIATE -->
<g id="edge11" class="edge">
<title>ENGINE_FAILURE&#45;&gt;DECISION_INAPPROPRIATE</title>
<g id="a_edge11"><a xlink:title="ENGINE_FAILURE &#45;&gt; DECISION_INAPPROPRIATE: support 133, stability 0.83">
<path fill="none" stroke="#546e7a" stroke-width="1.5" d="M191.34,-143.1C203.23,-160.38 221.68,-187.19 235.02,-206.58"/>
<polygon fill="#546e7a" stroke="#546e7a" stroke-width="1.5" points="233.34,-207.54 238.04,-210.98 236.51,-205.36 233.34,-207.54"/>
</a>
</g>
</g>
<!-- CONTROL_SURFACE_ANOMALY -->
<g id="node12" class="node">
<title>CONTROL_SURFACE_ANOMALY</title>
<path fill="#cce3f0" stroke="#0072b2" stroke-width="0.9" d="M445.59,-143.28C445.59,-143.28 391.5,-143.28 391.5,-143.28 385.5,-143.28 379.5,-137.28 379.5,-131.28 379.5,-131.28 379.5,-118.64 379.5,-118.64 379.5,-112.64 385.5,-106.64 391.5,-106.64 391.5,-106.64 445.59,-106.64 445.59,-106.64 451.59,-106.64 457.59,-112.64 457.59,-118.64 457.59,-118.64 457.59,-131.28 457.59,-131.28 457.59,-137.28 451.59,-143.28 445.59,-143.28"/>
<text xml:space="preserve" text-anchor="start" x="387.42" y="-130.46" font-family="Liberation Serif" font-size="10.00" fill="#263238">Control surface</text>
<text xml:space="preserve" text-anchor="start" x="400.92" y="-120.46" font-family="Liberation Serif" font-size="10.00" fill="#263238">anomaly</text>
<text xml:space="preserve" text-anchor="start" x="406.55" y="-112.36" font-family="Liberation Serif" font-size="8.00" fill="#546e7a">n = 387</text>
</g>
<!-- LOSS_OF_CONTROL_INFLIGHT -->
<g id="node16" class="node">
<title>LOSS_OF_CONTROL_INFLIGHT</title>
<path fill="#cce3f0" stroke="#0072b2" stroke-width="0.9" d="M359.84,-36.64C359.84,-36.64 307.25,-36.64 307.25,-36.64 301.25,-36.64 295.25,-30.64 295.25,-24.64 295.25,-24.64 295.25,-12 295.25,-12 295.25,-6 301.25,0 307.25,0 307.25,0 359.84,0 359.84,0 365.84,0 371.84,-6 371.84,-12 371.84,-12 371.84,-24.64 371.84,-24.64 371.84,-30.64 365.84,-36.64 359.84,-36.64"/>
<text xml:space="preserve" text-anchor="start" x="303.17" y="-23.82" font-family="Liberation Serif" font-size="10.00" fill="#263238">Loss of control</text>
<text xml:space="preserve" text-anchor="start" x="317.05" y="-13.82" font-family="Liberation Serif" font-size="10.00" fill="#263238">in flight</text>
<text xml:space="preserve" text-anchor="start" x="321.55" y="-5.72" font-family="Liberation Serif" font-size="8.00" fill="#546e7a">n = 514</text>
</g>
<!-- CONTROL_SURFACE_ANOMALY&#45;&gt;LOSS_OF_CONTROL_INFLIGHT -->
<g id="edge8" class="edge">
<title>CONTROL_SURFACE_ANOMALY&#45;&gt;LOSS_OF_CONTROL_INFLIGHT</title>
<g id="a_edge8"><a xlink:title="CONTROL_SURFACE_ANOMALY &#45;&gt; LOSS_OF_CONTROL_INFLIGHT: support 172, stability 0.10">
<path fill="none" stroke="#546e7a" stroke-width="1.64" d="M404.13,-106.21C389.94,-88.74 368.19,-61.97 352.58,-42.76"/>
<polygon fill="#546e7a" stroke="#546e7a" stroke-width="1.64" points="354.28,-41.79 349.32,-38.74 351.29,-44.22 354.28,-41.79"/>
</a>
</g>
</g>
<!-- LANDING_GEAR_ANOMALY -->
<g id="node13" class="node">
<title>LANDING_GEAR_ANOMALY</title>
<path fill="#cce3f0" stroke="#0072b2" stroke-width="0.9" d="M538.47,-143.28C538.47,-143.28 492.63,-143.28 492.63,-143.28 486.63,-143.28 480.63,-137.28 480.63,-131.28 480.63,-131.28 480.63,-118.64 480.63,-118.64 480.63,-112.64 486.63,-106.64 492.63,-106.64 492.63,-106.64 538.47,-106.64 538.47,-106.64 544.47,-106.64 550.47,-112.64 550.47,-118.64 550.47,-118.64 550.47,-131.28 550.47,-131.28 550.47,-137.28 544.47,-143.28 538.47,-143.28"/>
<text xml:space="preserve" text-anchor="start" x="488.55" y="-130.46" font-family="Liberation Serif" font-size="10.00" fill="#263238">Landing gear</text>
<text xml:space="preserve" text-anchor="start" x="497.92" y="-120.46" font-family="Liberation Serif" font-size="10.00" fill="#263238">anomaly</text>
<text xml:space="preserve" text-anchor="start" x="503.55" y="-112.36" font-family="Liberation Serif" font-size="8.00" fill="#546e7a">n = 504</text>
</g>
<!-- LOSS_OF_CONTROL_GROUND -->
<g id="node17" class="node">
<title>LOSS_OF_CONTROL_GROUND</title>
<path fill="#cce3f0" stroke="#0072b2" stroke-width="0.9" d="M541.84,-36.64C541.84,-36.64 489.25,-36.64 489.25,-36.64 483.25,-36.64 477.25,-30.64 477.25,-24.64 477.25,-24.64 477.25,-12 477.25,-12 477.25,-6 483.25,0 489.25,0 489.25,0 541.84,0 541.84,0 547.84,0 553.84,-6 553.84,-12 553.84,-12 553.84,-24.64 553.84,-24.64 553.84,-30.64 547.84,-36.64 541.84,-36.64"/>
<text xml:space="preserve" text-anchor="start" x="485.17" y="-23.82" font-family="Liberation Serif" font-size="10.00" fill="#263238">Loss of control</text>
<text xml:space="preserve" text-anchor="start" x="494.55" y="-13.82" font-family="Liberation Serif" font-size="10.00" fill="#263238">on ground</text>
<text xml:space="preserve" text-anchor="start" x="503.55" y="-5.72" font-family="Liberation Serif" font-size="8.00" fill="#546e7a">n = 257</text>
</g>
<!-- LANDING_GEAR_ANOMALY&#45;&gt;LOSS_OF_CONTROL_GROUND -->
<g id="edge9" class="edge">
<title>LANDING_GEAR_ANOMALY&#45;&gt;LOSS_OF_CONTROL_GROUND</title>
<g id="a_edge9"><a xlink:title="LANDING_GEAR_ANOMALY &#45;&gt; LOSS_OF_CONTROL_GROUND: support 163, stability 0.57">
<path fill="none" stroke="#546e7a" stroke-width="1.61" d="M515.55,-106.21C515.55,-89.27 515.55,-63.58 515.55,-44.52"/>
<polygon fill="#546e7a" stroke="#546e7a" stroke-width="1.61" points="517.47,-44.75 515.55,-39.25 513.62,-44.75 517.47,-44.75"/>
</a>
</g>
</g>
<!-- OTHER_SYSTEM_FAILURE&#45;&gt;PROCEDURE_NOT_FOLLOWED -->
<g id="edge6" class="edge">
<title>OTHER_SYSTEM_FAILURE&#45;&gt;PROCEDURE_NOT_FOLLOWED</title>
<g id="a_edge6"><a xlink:title="OTHER_SYSTEM_FAILURE &#45;&gt; PROCEDURE_NOT_FOLLOWED: support 220, stability 0.53">
<path fill="none" stroke="#546e7a" stroke-width="1.79" d="M333.41,-143.45C345.05,-160.6 362.89,-186.89 375.93,-206.12"/>
<polygon fill="#546e7a" stroke="#546e7a" stroke-width="1.79" points="374.3,-207.14 378.98,-210.61 377.48,-204.98 374.3,-207.14"/>
</a>
</g>
</g>
<!-- OTHER_SYSTEM_FAILURE&#45;&gt;LANDING_GEAR_ANOMALY -->
<g id="edge14" class="edge">
<title>OTHER_SYSTEM_FAILURE&#45;&gt;LANDING_GEAR_ANOMALY</title>
<g id="a_edge14"><a xlink:title="OTHER_SYSTEM_FAILURE &#45;&gt; LANDING_GEAR_ANOMALY: support 96, stability 1.00">
<path fill="none" stroke="#546e7a" stroke-width="1.35" d="M334.49,-143.62C344.83,-156.76 360.61,-173.3 379.05,-180.78 411.58,-193.98 425.51,-193.98 458.05,-180.78 473.89,-174.35 487.77,-161.23 497.93,-149.33"/>
<polygon fill="#546e7a" stroke="#546e7a" stroke-width="1.35" points="499.31,-150.67 501.31,-145.2 496.33,-148.23 499.31,-150.67"/>
</a>
</g>
</g>
<!-- LOSS_OF_CONTROL_INFLIGHT&#45;&gt;DECISION_INAPPROPRIATE -->
<g id="edge13" class="edge">
<title>LOSS_OF_CONTROL_INFLIGHT&#45;&gt;DECISION_INAPPROPRIATE</title>
<g id="a_edge13"><a xlink:title="LOSS_OF_CONTROL_INFLIGHT &#45;&gt; DECISION_INAPPROPRIATE: support 99, stability 0.83">
<path fill="none" stroke="#546e7a" stroke-width="1.37" d="M317.72,-36.92C304.38,-52.72 285.87,-77.15 275.55,-101.64 261.05,-136.02 255.28,-179.21 253,-205.86"/>
<polygon fill="#546e7a" stroke="#546e7a" stroke-width="1.37" points="251.1,-205.54 252.59,-211.17 254.94,-205.84 251.1,-205.54"/>
</a>
</g>
</g>
</g>
</svg>
