<?xml version="1.0" encoding="UTF-8" standalone="no"?>
<!DOCTYPE svg PUBLIC "-//W3C//DTD SVG 1.1//EN"
 "http://www.w3.org/Graphics/SVG/1.1/DTD/svg11.dtd">
<!-- Generated by graphviz version 14.1.2 (20260126.1125)
 -->
<!-- Title: G Pages: 1 -->
<svg width="947pt" height="282pt"
 viewBox="0.00 0.00 947.00 282.00" xmlns="http://www.w3.org/2000/svg" xmlns:xlink="http://www.w3.org/1999/xlink">
<g id="graph0" class="graph" transform="scale(1 1) rotate(0) translate(4 278.4)">
<title>G</title>
<polygon fill="white" stroke="none" points="-4,4 -4,-278.4 942.5,-278.4 942.5,4 -4,4"/>
<text xml:space="preserve" text-anchor="start" x="8" y="-256.15" font-family="Times,serif" font-size="15.00">Causal structure — LOC&#45;I (top 12 edges by record support; PC + LLM ordering priors, reoriented; line weight ∝ support)</text>
<!-- tier1 -->
<g id="node1" class="node">
<title>tier1</title>
<text xml:space="preserve" text-anchor="middle" x="203.69" y="-222.68" font-family="Times,serif" font-style="italic" font-size="10.00" fill="#808080">Latent / ambient conditions</text>
</g>
<!-- tier3 -->
<g id="node5" class="node">
<title>tier3</title>
<text xml:space="preserve" text-anchor="middle" x="203.69" y="-116.47" font-family="Times,serif" font-style="italic" font-size="10.00" fill="#808080">Crew &amp; external actions</text>
</g>
<!-- tier1&#45;&gt;tier3 -->
<!-- LATENT_MECHANICAL_DEFECT -->
<g id="node2" class="node">
<title>LATENT_MECHANICAL_DEFECT</title>
<path fill="#f7f7f7" stroke="#333333" stroke-width="0.8" d="M661.76,-248.4C661.76,-248.4 613.61,-248.4 613.61,-248.4 607.61,-248.4 601.61,-242.4 601.61,-236.4 601.61,-236.4 601.61,-215.2 601.61,-215.2 601.61,-209.2 607.61,-203.2 613.61,-203.2 613.61,-203.2 661.76,-203.2 661.76,-203.2 667.76,-203.2 673.76,-209.2 673.76,-215.2 673.76,-215.2 673.76,-236.4 673.76,-236.4 673.76,-242.4 667.76,-248.4 661.76,-248.4"/>
<text xml:space="preserve" text-anchor="start" x="621.19" y="-236.3" font-family="Times,serif" font-size="10.00">Latent</text>
<text xml:space="preserve" text-anchor="start" x="608.81" y="-226.3" font-family="Times,serif" font-size="10.00">mechanical</text>
<text xml:space="preserve" text-anchor="start" x="621.94" y="-216.3" font-family="Times,serif" font-size="10.00">defect</text>
<text xml:space="preserve" text-anchor="start" x="621.56" y="-208.2" font-family="Times,serif" font-size="8.00" fill="#808080">n = 361</text>
</g>
<!-- CONTROL_INPUT_IMPROPER -->
<g id="node7" class="node">
<title>CONTROL_INPUT_IMPROPER</title>
<path fill="#f7f7f7" stroke="#333333" stroke-width="0.8" d="M613.64,-137.6C613.64,-137.6 555.74,-137.6 555.74,-137.6 549.74,-137.6 543.74,-131.6 543.74,-125.6 543.74,-125.6 543.74,-113.6 543.74,-113.6 543.74,-107.6 549.74,-101.6 555.74,-101.6 555.74,-101.6 613.64,-101.6 613.64,-101.6 619.64,-101.6 625.64,-107.6 625.64,-113.6 625.64,-113.6 625.64,-125.6 625.64,-125.6 625.64,-131.6 619.64,-137.6 613.64,-137.6"/>
<text xml:space="preserve" text-anchor="start" x="550.94" y="-125.1" font-family="Times,serif" font-size="10.00">Control input</text>
<text xml:space="preserve" text-anchor="start" x="561.06" y="-115.1" font-family="Times,serif" font-size="10.00">improper</text>
<text xml:space="preserve" text-anchor="start" x="564.81" y="-107" font-family="Times,serif" font-size="8.00" fill="#808080">n = 2,601</text>
</g>
<!-- LATENT_MECHANICAL_DEFECT&#45;&gt;CONTROL_INPUT_IMPROPER -->
<g id="edge11" class="edge">
<title>LATENT_MECHANICAL_DEFECT&#45;&gt;CONTROL_INPUT_IMPROPER</title>
<g id="a_edge11"><a xlink:title="LATENT_MECHANICAL_DEFECT &#45;&gt; CONTROL_INPUT_IMPROPER: support 156, stability 0.90">
<path fill="none" stroke="#4d4d4d" stroke-width="1.03" d="M626.58,-202.96C617.82,-185.74 605.63,-161.77 596.65,-144.13"/>
<polygon fill="#4d4d4d" stroke="#4d4d4d" stroke-width="1.03" points="598.42,-143.36 594.21,-139.33 594.99,-145.1 598.42,-143.36"/>
</a>
</g>
</g>
<!-- AIRCRAFT_WEIGHT_OR_BALANCE_OUT_OF_LIMITS -->
<g id="node3" class="node">
<title>AIRCRAFT_WEIGHT_OR_BALANCE_OUT_OF_LIMITS</title>
<path fill="#f7f7f7" stroke="#333333" stroke-width="0.8" d="M569.26,-243.8C569.26,-243.8 494.11,-243.8 494.11,-243.8 488.11,-243.8 482.11,-237.8 482.11,-231.8 482.11,-231.8 482.11,-219.8 482.11,-219.8 482.11,-213.8 488.11,-207.8 494.11,-207.8 494.11,-207.8 569.26,-207.8 569.26,-207.8 575.26,-207.8 581.26,-213.8 581.26,-219.8 581.26,-219.8 581.26,-231.8 581.26,-231.8 581.26,-237.8 575.26,-243.8 569.26,-243.8"/>
<text xml:space="preserve" text-anchor="start" x="489.31" y="-231.3" font-family="Times,serif" font-size="10.00">Weight / balance</text>
<text xml:space="preserve" text-anchor="start" x="501.69" y="-221.3" font-family="Times,serif" font-size="10.00">out of limits</text>
<text xml:space="preserve" text-anchor="start" x="515.56" y="-213.2" font-family="Times,serif" font-size="8.00" fill="#808080">n = 224</text>
</g>
<!-- AIRCRAFT_WEIGHT_OR_BALANCE_OUT_OF_LIMITS&#45;&gt;CONTROL_INPUT_IMPROPER -->
<g id="edge13" class="edge">
<title>AIRCRAFT_WEIGHT_OR_BALANCE_OUT_OF_LIMITS&#45;&gt;CONTROL_INPUT_IMPROPER</title>
<g id="a_edge13"><a xlink:title="AIRCRAFT_WEIGHT_OR_BALANCE_OUT_OF_LIMITS &#45;&gt; CONTROL_INPUT_IMPROPER: support 121, stability 0.50">
<path fill="none" stroke="#4d4d4d" stroke-width="0.96" d="M540.44,-207.59C549.3,-190.17 563.06,-163.12 572.88,-143.81"/>
<polygon fill="#4d4d4d" stroke="#4d4d4d" stroke-width="0.96" points="574.49,-144.9 575.26,-139.13 571.05,-143.16 574.49,-144.9"/>
</a>
</g>
</g>
<!-- HIGH_DENSITY_ALTITUDE -->
<g id="node4" class="node">
<title>HIGH_DENSITY_ALTITUDE</title>
<path fill="#f7f7f7" stroke="#333333" stroke-width="0.8" d="M435.89,-243.8C435.89,-243.8 379.49,-243.8 379.49,-243.8 373.49,-243.8 367.49,-237.8 367.49,-231.8 367.49,-231.8 367.49,-219.8 367.49,-219.8 367.49,-213.8 373.49,-207.8 379.49,-207.8 379.49,-207.8 435.89,-207.8 435.89,-207.8 441.89,-207.8 447.89,-213.8 447.89,-219.8 447.89,-219.8 447.89,-231.8 447.89,-231.8 447.89,-237.8 441.89,-243.8 435.89,-243.8"/>
<text xml:space="preserve" text-anchor="start" x="374.69" y="-231.3" font-family="Times,serif" font-size="10.00">High density</text>
<text xml:space="preserve" text-anchor="start" x="388.19" y="-221.3" font-family="Times,serif" font-size="10.00">altitude</text>
<text xml:space="preserve" text-anchor="start" x="391.56" y="-213.2" font-family="Times,serif" font-size="8.00" fill="#808080">n = 245</text>
</g>
<!-- DECISION_INAPPROPRIATE -->
<g id="node6" class="node">
<title>DECISION_INAPPROPRIATE</title>
<path fill="#f7f7f7" stroke="#333333" stroke-width="0.8" d="M511.76,-137.6C511.76,-137.6 451.61,-137.6 451.61,-137.6 445.61,-137.6 439.61,-131.6 439.61,-125.6 439.61,-125.6 439.61,-113.6 439.61,-113.6 439.61,-107.6 445.61,-101.6 451.61,-101.6 451.61,-101.6 511.76,-101.6 511.76,-101.6 517.76,-101.6 523.76,-107.6 523.76,-113.6 523.76,-113.6 523.76,-125.6 523.76,-125.6 523.76,-131.6 517.76,-137.6 511.76,-137.6"/>
<text xml:space="preserve" text-anchor="start" x="459.94" y="-125.1" font-family="Times,serif" font-size="10.00">Decision</text>
<text xml:space="preserve" text-anchor="start" x="446.81" y="-115.1" font-family="Times,serif" font-size="10.00">inappropriate</text>
<text xml:space="preserve" text-anchor="start" x="461.81" y="-107" font-family="Times,serif" font-size="8.00" fill="#808080">n = 1,205</text>
</g>
<!-- HIGH_DENSITY_ALTITUDE&#45;&gt;DECISION_INAPPROPRIATE -->
<g id="edge14" class="edge">
<title>HIGH_DENSITY_ALTITUDE&#45;&gt;DECISION_INAPPROPRIATE</title>
<g id="a_edge14"><a xlink:title="HIGH_DENSITY_ALTITUDE &#45;&gt; DECISION_INAPPROPRIATE: support 106, stability 0.40">
<path fill="none" stroke="#4d4d4d" stroke-width="0.93" d="M419.91,-207.59C432.44,-189.95 451.99,-162.41 465.74,-143.06"/>
<polygon fill="#4d4d4d" stroke="#4d4d4d" stroke-width="0.93" points="467.02,-144.58 468.63,-138.98 463.88,-142.35 467.02,-144.58"/>
</a>
</g>
</g>
<!-- STALL -->
<g id="node12" class="node">
<title>STALL</title>
<path fill="#f7f7f7" stroke="#333333" stroke-width="0.8" d="M502.76,-36C502.76,-36 472.61,-36 472.61,-36 466.61,-36 460.61,-30 460.61,-24 460.61,-24 460.61,-12 460.61,-12 460.61,-6 466.61,0 472.61,0 472.61,0 502.76,0 502.76,0 508.76,0 514.76,-6 514.76,-12 514.76,-12 514.76,-24 514.76,-24 514.76,-30 508.76,-36 502.76,-36"/>
<text xml:space="preserve" text-anchor="start" x="476.44" y="-18.5" font-family="Times,serif" font-size="10.00">Stall</text>
<text xml:space="preserve" text-anchor="start" x="467.81" y="-10.4" font-family="Times,serif" font-size="8.00" fill="#808080">n = 1,911</text>
</g>
<!-- HIGH_DENSITY_ALTITUDE&#45;&gt;STALL -->
<g id="edge10" class="edge">
<title>HIGH_DENSITY_ALTITUDE&#45;&gt;STALL</title>
<g id="a_edge10"><a xlink:title="HIGH_DENSITY_ALTITUDE &#45;&gt; STALL: support 165, stability 0.73">
<path fill="none" stroke="#4d4d4d" stroke-width="1.04" d="M382.02,-207.56C348.92,-183.13 298.45,-136.96 323.69,-97 352.18,-51.9 414.66,-32.34 453.74,-24.26"/>
<polygon fill="#4d4d4d" stroke="#4d4d4d" stroke-width="1.04" points="453.71,-26.23 458.74,-23.28 452.97,-22.46 453.71,-26.23"/>
</a>
</g>
</g>
<!-- tier5 -->
<g id="node11" class="node">
<title>tier5</title>
<text xml:space="preserve" text-anchor="middle" x="203.69" y="-14.88" font-family="Times,serif" font-style="italic" font-size="10.00" fill="#808080">Aerodynamic states</text>
</g>
<!-- tier3&#45;&gt;tier5 -->
<!-- DECISION_INAPPROPRIATE&#45;&gt;STALL -->
<g id="edge6" class="edge">
<title>DECISION_INAPPROPRIATE&#45;&gt;STALL</title>
<g id="a_edge6"><a xlink:title="DECISION_INAPPROPRIATE &#45;&gt; STALL: support 697, stability 0.00">
<path fill="none" stroke="#4d4d4d" stroke-width="1.61" d="M482.73,-101.25C483.69,-85.4 485.11,-61.77 486.19,-43.91"/>
<polygon fill="#4d4d4d" stroke="#4d4d4d" stroke-width="1.61" points="488.1,-44.19 486.51,-38.58 484.26,-43.96 488.1,-44.19"/>
</a>
</g>
</g>
<!-- CONTROL_INPUT_IMPROPER&#45;&gt;STALL -->
<g id="edge4" class="edge">
<title>CONTROL_INPUT_IMPROPER&#45;&gt;STALL</title>
<g id="a_edge4"><a xlink:title="CONTROL_INPUT_IMPROPER &#45;&gt; STALL: support 1,560, stability 0.00">
<path fill="none" stroke="#4d4d4d" stroke-width="2.16" d="M567.79,-101.25C551.8,-84.83 527.68,-60.06 510.08,-42"/>
<polygon fill="#4d4d4d" stroke="#4d4d4d" stroke-width="2.16" points="511.89,-41.09 506.67,-38.49 509.13,-43.78 511.89,-41.09"/>
</a>
</g>
</g>
<!-- LOSS_OF_CONTROL_INFLIGHT -->
<g id="node13" class="node">
<title>LOSS_OF_CONTROL_INFLIGHT</title>
<path fill="#f7f7f7" stroke="#333333" stroke-width="0.8" d="M664.01,-36C664.01,-36 599.36,-36 599.36,-36 593.36,-36 587.36,-30 587.36,-24 587.36,-24 587.36,-12 587.36,-12 587.36,-6 593.36,0 599.36,0 599.36,0 664.01,0 664.01,0 670.01,0 676.01,-6 676.01,-12 676.01,-12 676.01,-24 676.01,-24 676.01,-30 670.01,-36 664.01,-36"/>
<text xml:space="preserve" text-anchor="start" x="594.56" y="-23.5" font-family="Times,serif" font-size="10.00">Loss of control</text>
<text xml:space="preserve" text-anchor="start" x="611.81" y="-13.5" font-family="Times,serif" font-size="10.00">in flight</text>
<text xml:space="preserve" text-anchor="start" x="611.81" y="-5.4" font-family="Times,serif" font-size="8.00" fill="#808080">n = 2,937</text>
</g>
<!-- CONTROL_INPUT_IMPROPER&#45;&gt;LOSS_OF_CONTROL_INFLIGHT -->
<g id="edge3" class="edge">
<title>CONTROL_INPUT_IMPROPER&#45;&gt;LOSS_OF_CONTROL_INFLIGHT</title>
<g id="a_edge3"><a xlink:title="CONTROL_INPUT_IMPROPER &#45;&gt; LOSS_OF_CONTROL_INFLIGHT: support 1,830, stability 0.00">
<path fill="none" stroke="#4d4d4d" stroke-width="2.3" d="M592.87,-101.25C600.36,-85.4 611.5,-61.77 619.93,-43.91"/>
<polygon fill="#4d4d4d" stroke="#4d4d4d" stroke-width="2.3" points="621.5,-45.09 622.11,-39.3 618.02,-43.45 621.5,-45.09"/>
</a>
</g>
</g>
<!-- PROCEDURE_NOT_FOLLOWED -->
<g id="node8" class="node">
<title>PROCEDURE_NOT_FOLLOWED</title>
<path fill="#f7f7f7" stroke="#333333" stroke-width="0.8" d="M407.89,-137.6C407.89,-137.6 345.49,-137.6 345.49,-137.6 339.49,-137.6 333.49,-131.6 333.49,-125.6 333.49,-125.6 333.49,-113.6 333.49,-113.6 333.49,-107.6 339.49,-101.6 345.49,-101.6 345.49,-101.6 407.89,-101.6 407.89,-101.6 413.89,-101.6 419.89,-107.6 419.89,-113.6 419.89,-113.6 419.89,-125.6 419.89,-125.6 419.89,-131.6 413.89,-137.6 407.89,-137.6"/>
<text xml:space="preserve" text-anchor="start" x="340.69" y="-125.1" font-family="Times,serif" font-size="10.00">Procedure not</text>
<text xml:space="preserve" text-anchor="start" x="355.31" y="-115.1" font-family="Times,serif" font-size="10.00">followed</text>
<text xml:space="preserve" text-anchor="start" x="360.56" y="-107" font-family="Times,serif" font-size="8.00" fill="#808080">n = 751</text>
</g>
<!-- PROCEDURE_NOT_FOLLOWED&#45;&gt;DECISION_INAPPROPRIATE -->
<g id="edge9" class="edge">
<title>PROCEDURE_NOT_FOLLOWED&#45;&gt;DECISION_INAPPROPRIATE</title>
<g id="a_edge9"><a xlink:title="PROCEDURE_NOT_FOLLOWED &#45;&gt; DECISION_INAPPROPRIATE: support 185, stability 0.47">
<path fill="none" stroke="#4d4d4d" stroke-width="1.07" d="M420.16,-119.6C424.27,-119.6 428.38,-119.6 432.48,-119.6"/>
<polygon fill="#4d4d4d" stroke="#4d4d4d" stroke-width="1.07" points="432.27,-121.53 437.77,-119.6 432.27,-117.68 432.27,-121.53"/>
</a>
</g>
</g>
<!-- PROCEDURE_NOT_FOLLOWED&#45;&gt;CONTROL_INPUT_IMPROPER -->
<g id="edge7" class="edge">
<title>PROCEDURE_NOT_FOLLOWED&#45;&gt;CONTROL_INPUT_IMPROPER</title>
<g id="a_edge7"><a xlink:title="PROCEDURE_NOT_FOLLOWED &#45;&gt; CONTROL_INPUT_IMPROPER: support 434, stability 0.90">
<path fill="none" stroke="#4d4d4d" stroke-width="1.38" d="M391.94,-137.93C403.55,-150.38 420.74,-165.78 439.69,-172.7 474.76,-185.51 488.72,-185.79 523.69,-172.7 539.62,-166.74 554.14,-154.52 565.01,-143.31"/>
<polygon fill="#4d4d4d" stroke="#4d4d4d" stroke-width="1.38" points="566.27,-144.78 568.62,-139.44 563.46,-142.15 566.27,-144.78"/>
</a>
</g>
</g>
<!-- PERCEPTION_FAILURE -->
<g id="node9" class="node">
<title>PERCEPTION_FAILURE</title>
<path fill="#f7f7f7" stroke="#333333" stroke-width="0.8" d="M701.89,-137.6C701.89,-137.6 657.49,-137.6 657.49,-137.6 651.49,-137.6 645.49,-131.6 645.49,-125.6 645.49,-125.6 645.49,-113.6 645.49,-113.6 645.49,-107.6 651.49,-101.6 657.49,-101.6 657.49,-101.6 701.89,-101.6 701.89,-101.6 707.89,-101.6 713.89,-107.6 713.89,-113.6 713.89,-113.6 713.89,-125.6 713.89,-125.6 713.89,-131.6 707.89,-137.6 701.89,-137.6"/>
<text xml:space="preserve" text-anchor="start" x="652.69" y="-125.1" font-family="Times,serif" font-size="10.00">Perception</text>
<text xml:space="preserve" text-anchor="start" x="663.19" y="-115.1" font-family="Times,serif" font-size="10.00">failure</text>
<text xml:space="preserve" text-anchor="start" x="663.56" y="-107" font-family="Times,serif" font-size="8.00" fill="#808080">n = 311</text>
</g>
<!-- PERCEPTION_FAILURE&#45;&gt;LOSS_OF_CONTROL_INFLIGHT -->
<g id="edge8" class="edge">
<title>PERCEPTION_FAILURE&#45;&gt;LOSS_OF_CONTROL_INFLIGHT</title>
<g id="a_edge8"><a xlink:title="PERCEPTION_FAILURE &#45;&gt; LOSS_OF_CONTROL_INFLIGHT: support 201, stability 0.00">
<path fill="none" stroke="#4d4d4d" stroke-width="1.1" d="M671.33,-101.25C663.48,-84.97 651.68,-60.49 643,-42.47"/>
<polygon fill="#4d4d4d" stroke="#4d4d4d" stroke-width="1.1" points="644.8,-41.77 640.68,-37.65 641.33,-43.44 644.8,-41.77"/>
</a>
</g>
</g>
<!-- CREW_COORDINATION_FAILURE -->
<g id="node10" class="node">
<title>CREW_COORDINATION_FAILURE</title>
<path fill="#f7f7f7" stroke="#333333" stroke-width="0.8" d="M799.76,-142.2C799.76,-142.2 745.61,-142.2 745.61,-142.2 739.61,-142.2 733.61,-136.2 733.61,-130.2 733.61,-130.2 733.61,-109 733.61,-109 733.61,-103 739.61,-97 745.61,-97 745.61,-97 799.76,-97 799.76,-97 805.76,-97 811.76,-103 811.76,-109 811.76,-109 811.76,-130.2 811.76,-130.2 811.76,-136.2 805.76,-142.2 799.76,-142.2"/>
<text xml:space="preserve" text-anchor="start" x="759.56" y="-130.1" font-family="Times,serif" font-size="10.00">Crew</text>
<text xml:space="preserve" text-anchor="start" x="740.81" y="-120.1" font-family="Times,serif" font-size="10.00">coordination</text>
<text xml:space="preserve" text-anchor="start" x="756.19" y="-110.1" font-family="Times,serif" font-size="10.00">failure</text>
<text xml:space="preserve" text-anchor="start" x="756.56" y="-102" font-family="Times,serif" font-size="8.00" fill="#808080">n = 221</text>
</g>
<!-- CREW_COORDINATION_FAILURE&#45;&gt;LOSS_OF_CONTROL_INFLIGHT -->
<g id="edge12" class="edge">
<title>CREW_COORDINATION_FAILURE&#45;&gt;LOSS_OF_CONTROL_INFLIGHT</title>
<g id="a_edge12"><a xlink:title="CREW_COORDINATION_FAILURE &#45;&gt; LOSS_OF_CONTROL_INFLIGHT: support 126, stability 0.33">
<path fill="none" stroke="#4d4d4d" stroke-width="0.97" d="M741.74,-96.74C717.88,-79.88 685.07,-56.71 661.5,-40.06"/>
<polygon fill="#4d4d4d" stroke="#4d4d4d" stroke-width="0.97" points="662.81,-38.63 657.21,-37.03 660.59,-41.78 662.81,-38.63"/>
</a>
</g>
</g>
<!-- STALL&#45;&gt;LOSS_OF_CONTROL_INFLIGHT -->
<g id="edge5" class="edge">
<title>STALL&#45;&gt;LOSS_OF_CONTROL_INFLIGHT</title>
<g id="a_edge5"><a xlink:title="STALL &#45;&gt; LOSS_OF_CONTROL_INFLIGHT: support 1,407, stability 0.00">
<path fill="none" stroke="#4d4d4d" stroke-width="2.08" d="M514.97,-18C536.17,-18 557.37,-18 578.56,-18"/>
<polygon fill="#4d4d4d" stroke="#4d4d4d" stroke-width="2.08" points="578.36,-19.93 583.86,-18 578.36,-16.08 578.36,-19.93"/>
</a>
</g>
</g>
</g>
</svg>
